<svg xmlns="http://www.w3.org/2000/svg" xmlns:xlink="http://www.w3.org/1999/xlink" contentStyleType="text/css" data-diagram-type="ACTIVITY" height="1103px" preserveAspectRatio="none" style="width:1009px;height:1103px;background:#F0F8FF;" version="1.1" viewBox="0 0 1009 1103" width="1009px" zoomAndPan="magnify"><title>**AD-08: Buat Order ke Agen (Pangkalan)**
Sistem SIM4LON</title><defs/><g><rect fill="#F0F8FF" height="1103" style="stroke:none;stroke-width:1;" width="1009" x="0" y="0"/><g class="title" data-source-line="8"><text fill="#000000" font-family="Verdana" font-size="22" font-weight="bold" lengthAdjust="spacing" textLength="493.915" x="256.1924" y="35.4209">AD-08: Buat Order ke Agen (Pangkalan)</text><text fill="#000000" font-family="Verdana" font-size="22" font-weight="bold" lengthAdjust="spacing" textLength="204.8643" x="400.7178" y="61.0303">Sistem SIM4LON</text></g><rect fill="#FFFFFF" height="20.9531" style="stroke:#FFFFFF;stroke-width:1;" width="986.2998" x="10" y="79.9639"/><ellipse cx="339.1472" cy="115.917" fill="#FFFFFF" rx="10" ry="10" style="stroke:#000000;stroke-width:1;"/><rect fill="#87CEEB" height="33.9688" rx="12.5" ry="12.5" style="stroke:#1565C0;stroke-width:1;" width="190.1797" x="244.0574" y="145.917"/><text fill="#000000" font-family="Verdana" font-size="12" lengthAdjust="spacing" textLength="170.1797" x="254.0574" y="167.0557">Buka menu "Order ke Agen"</text><rect fill="#87CEEB" height="33.9688" rx="12.5" ry="12.5" style="stroke:#1565C0;stroke-width:1;" width="154.3027" x="261.9958" y="199.8857"/><text fill="#000000" font-family="Verdana" font-size="12" lengthAdjust="spacing" textLength="134.3027" x="271.9958" y="221.0244">Klik "Buat Order Baru"</text><rect fill="#87CEEB" height="33.9688" rx="12.5" ry="12.5" style="stroke:#1565C0;stroke-width:1;" width="103.6016" x="287.3464" y="415.7607"/><text fill="#000000" font-family="Verdana" font-size="12" lengthAdjust="spacing" textLength="83.6016" x="297.3464" y="436.8994">Pilih jenis LPG</text><rect fill="#87CEEB" height="33.9688" rx="12.5" ry="12.5" style="stroke:#1565C0;stroke-width:1;" width="161.1816" x="258.5564" y="469.7295"/><text fill="#000000" font-family="Verdana" font-size="12" lengthAdjust="spacing" textLength="141.1816" x="268.5564" y="490.8682">Masukkan jumlah order</text><rect fill="#87CEEB" height="33.9688" rx="12.5" ry="12.5" style="stroke:#1565C0;stroke-width:1;" width="181.7949" x="248.2498" y="523.6982"/><text fill="#000000" font-family="Verdana" font-size="12" lengthAdjust="spacing" textLength="161.7949" x="258.2498" y="544.8369">Tambah catatan (opsional)</text><rect fill="#87CEEB" height="33.9688" rx="12.5" ry="12.5" style="stroke:#1565C0;stroke-width:1;" width="125.627" x="276.3337" y="577.667"/><text fill="#000000" font-family="Verdana" font-size="12" lengthAdjust="spacing" textLength="105.627" x="286.3337" y="598.8057">Klik "Kirim Order"</text><rect fill="#87CEEB" height="47.9375" rx="12.5" ry="12.5" style="stroke:#1565C0;stroke-width:1;" width="167.0996" x="16" y="933.417"/><text fill="#000000" font-family="Verdana" font-size="12" lengthAdjust="spacing" textLength="147.0996" x="26" y="954.5557">Tampilkan pesan sukses</text><text fill="#000000" font-family="Verdana" font-size="12" lengthAdjust="spacing" textLength="143.1328" x="26" y="968.5244">"Order dikirim ke Agen"</text><path d="M198.8457,998.2061 L198.8457,1014.3389 L178.8457,1018.3389 L198.8457,1022.3389 L198.8457,1038.4717 A0,0 0 0 0 198.8457,1038.4717 L480.7788,1038.4717 A0,0 0 0 0 480.7788,1038.4717 L480.7788,1008.2061 L470.7788,998.2061 L198.8457,998.2061 A0,0 0 0 0 198.8457,998.2061" fill="#FFFFFF" style="stroke:#000000;stroke-width:1;"/><path d="M470.7788,998.2061 L470.7788,1008.2061 L480.7788,1008.2061 L470.7788,998.2061" fill="#FFFFFF" style="stroke:#000000;stroke-width:1;"/><text fill="#000000" font-family="Verdana" font-size="13" lengthAdjust="spacing" textLength="188.3857" x="204.8457" y="1015.2729">Tunggu konfirmasi dari Agen</text><text fill="#000000" font-family="Verdana" font-size="13" lengthAdjust="spacing" textLength="260.9331" x="204.8457" y="1030.4058">Status: PENDING &#8594; DIKIRIM &#8594; DITERIMA</text><rect fill="#87CEEB" height="33.9688" rx="12.5" ry="12.5" style="stroke:#1565C0;stroke-width:1;" width="158.5918" x="20.2539" y="1001.3545"/><text fill="#000000" font-family="Verdana" font-size="12" lengthAdjust="spacing" textLength="138.5918" x="30.2539" y="1022.4932">Tampilkan daftar order</text><ellipse cx="99.5498" cy="1069.4717" fill="none" rx="11" ry="11" style="stroke:#000000;stroke-width:1;"/><ellipse cx="99.5498" cy="1069.4717" fill="#FFFFFF" rx="6" ry="6" style="stroke:#000000;stroke-width:1;"/><rect fill="#87CEEB" height="33.9688" rx="12.5" ry="12.5" style="stroke:#1565C0;stroke-width:1;" width="155.9316" x="490.7788" y="729.6045"/><text fill="#000000" font-family="Verdana" font-size="12" lengthAdjust="spacing" textLength="135.9316" x="500.7788" y="750.7432">Tampilkan pesan error</text><ellipse cx="568.7446" cy="808.542" fill="none" rx="11" ry="11" style="stroke:#000000;stroke-width:1;"/><ellipse cx="568.7446" cy="808.542" fill="#FFFFFF" rx="6" ry="6" style="stroke:#000000;stroke-width:1;"/><line style="stroke:#000000;stroke-width:1;" x1="10" x2="10" y1="79.9639" y2="1096.4717"/><rect fill="#87CEEB" height="33.9688" rx="12.5" ry="12.5" style="stroke:#1565C0;stroke-width:1;" width="150.5938" x="835.5444" y="253.8545"/><text fill="#000000" font-family="Verdana" font-size="12" lengthAdjust="spacing" textLength="130.5938" x="845.5444" y="274.9932">Tampilkan form order</text><rect fill="#87CEEB" height="33.9688" rx="12.5" ry="12.5" style="stroke:#1565C0;stroke-width:1;" width="156.793" x="832.4448" y="307.8232"/><text fill="#000000" font-family="Verdana" font-size="12" lengthAdjust="spacing" textLength="136.793" x="842.4448" y="328.9619">Load data agen terkait</text><rect fill="#87CEEB" height="33.9688" rx="12.5" ry="12.5" style="stroke:#1565C0;stroke-width:1;" width="159.1953" x="831.2437" y="361.792"/><text fill="#000000" font-family="Verdana" font-size="12" lengthAdjust="spacing" textLength="139.1953" x="841.2437" y="382.9307">Tampilkan stok saat ini</text><rect fill="#87CEEB" height="33.9688" rx="12.5" ry="12.5" style="stroke:#1565C0;stroke-width:1;" width="101.4688" x="860.1069" y="631.6357"/><text fill="#000000" font-family="Verdana" font-size="12" lengthAdjust="spacing" textLength="81.4688" x="870.1069" y="652.7744">Validasi input</text><polygon fill="#87CEEB" points="878.7598,685.6045,942.9229,685.6045,954.9229,697.6045,942.9229,709.6045,878.7598,709.6045,866.7598,697.6045,878.7598,685.6045" style="stroke:#1565C0;stroke-width:1;"/><text fill="#000000" font-family="Verdana" font-size="11" lengthAdjust="spacing" textLength="64.1631" x="878.7598" y="701.4126">Input valid?</text><text fill="#000000" font-family="Verdana" font-size="11" lengthAdjust="spacing" textLength="13.2505" x="853.5093" y="695.0103">ya</text><text fill="#000000" font-family="Verdana" font-size="11" lengthAdjust="spacing" textLength="27.4624" x="954.9229" y="695.0103">tidak</text><rect fill="#87CEEB" height="47.9375" rx="12.5" ry="12.5" style="stroke:#1565C0;stroke-width:1;" width="145.1738" x="666.3901" y="729.6045"/><text fill="#000000" font-family="Verdana" font-size="12" lengthAdjust="spacing" textLength="125.1738" x="676.3901" y="750.7432">Generate kode order</text><text fill="#000000" font-family="Verdana" font-size="12" lengthAdjust="spacing" textLength="73.0605" x="676.3901" y="764.7119">(AGN-XXXX)</text><rect fill="#87CEEB" height="47.9375" rx="12.5" ry="12.5" style="stroke:#1565C0;stroke-width:1;" width="164.5332" x="656.7104" y="811.5107"/><text fill="#000000" font-family="Verdana" font-size="12" lengthAdjust="spacing" textLength="117.1992" x="666.7104" y="832.6494">Simpan agen_order</text><text fill="#000000" font-family="Verdana" font-size="12" lengthAdjust="spacing" textLength="144.5332" x="666.7104" y="846.6182">dengan status PENDING</text><rect fill="#87CEEB" height="33.9688" rx="12.5" ry="12.5" style="stroke:#1565C0;stroke-width:1;" width="151.2324" x="663.3608" y="879.4482"/><text fill="#000000" font-family="Verdana" font-size="12" lengthAdjust="spacing" textLength="131.2324" x="673.3608" y="900.5869">Set order_date = now</text><line style="stroke:#000000;stroke-width:1;" x1="650.7104" x2="650.7104" y1="79.9639" y2="1096.4717"/><line style="stroke:#000000;stroke-width:1;" x1="994.439" x2="994.439" y1="79.9639" y2="1096.4717"/><line style="stroke:#000000;stroke-width:1;" x1="339.1472" x2="339.1472" y1="125.917" y2="145.917"/><polygon fill="#000000" points="335.1472,135.917,339.1472,145.917,343.1472,135.917,339.1472,139.917" style="stroke:#000000;stroke-width:1;"/><line style="stroke:#000000;stroke-width:1;" x1="339.1472" x2="339.1472" y1="179.8857" y2="199.8857"/><polygon fill="#000000" points="335.1472,189.8857,339.1472,199.8857,343.1472,189.8857,339.1472,193.8857" style="stroke:#000000;stroke-width:1;"/><line style="stroke:#000000;stroke-width:1;" x1="339.1472" x2="339.1472" y1="449.7295" y2="469.7295"/><polygon fill="#000000" points="335.1472,459.7295,339.1472,469.7295,343.1472,459.7295,339.1472,463.7295" style="stroke:#000000;stroke-width:1;"/><line style="stroke:#000000;stroke-width:1;" x1="339.1472" x2="339.1472" y1="503.6982" y2="523.6982"/><polygon fill="#000000" points="335.1472,513.6982,339.1472,523.6982,343.1472,513.6982,339.1472,517.6982" style="stroke:#000000;stroke-width:1;"/><line style="stroke:#000000;stroke-width:1;" x1="339.1472" x2="339.1472" y1="557.667" y2="577.667"/><polygon fill="#000000" points="335.1472,567.667,339.1472,577.667,343.1472,567.667,339.1472,571.667" style="stroke:#000000;stroke-width:1;"/><line style="stroke:#000000;stroke-width:1;" x1="99.5498" x2="99.5498" y1="981.3545" y2="1001.3545"/><polygon fill="#000000" points="95.5498,991.3545,99.5498,1001.3545,103.5498,991.3545,99.5498,995.3545" style="stroke:#000000;stroke-width:1;"/><line style="stroke:#000000;stroke-width:1;" x1="99.5498" x2="99.5498" y1="1035.3232" y2="1058.4717"/><polygon fill="#000000" points="95.5498,1048.4717,99.5498,1058.4717,103.5498,1048.4717,99.5498,1052.4717" style="stroke:#000000;stroke-width:1;"/><line style="stroke:#000000;stroke-width:1;" x1="568.7446" x2="568.7446" y1="763.5732" y2="797.542"/><polygon fill="#000000" points="564.7446,787.542,568.7446,797.542,572.7446,787.542,568.7446,791.542" style="stroke:#000000;stroke-width:1;"/><line style="stroke:#000000;stroke-width:1;" x1="910.8413" x2="910.8413" y1="287.8232" y2="307.8232"/><polygon fill="#000000" points="906.8413,297.8232,910.8413,307.8232,914.8413,297.8232,910.8413,301.8232" style="stroke:#000000;stroke-width:1;"/><line style="stroke:#000000;stroke-width:1;" x1="910.8413" x2="910.8413" y1="341.792" y2="361.792"/><polygon fill="#000000" points="906.8413,351.792,910.8413,361.792,914.8413,351.792,910.8413,355.792" style="stroke:#000000;stroke-width:1;"/><line style="stroke:#000000;stroke-width:1;" x1="738.9771" x2="738.9771" y1="777.542" y2="811.5107"/><polygon fill="#000000" points="734.9771,801.5107,738.9771,811.5107,742.9771,801.5107,738.9771,805.5107" style="stroke:#000000;stroke-width:1;"/><line style="stroke:#000000;stroke-width:1;" x1="738.9771" x2="738.9771" y1="859.4482" y2="879.4482"/><polygon fill="#000000" points="734.9771,869.4482,738.9771,879.4482,742.9771,869.4482,738.9771,873.4482" style="stroke:#000000;stroke-width:1;"/><line style="stroke:#000000;stroke-width:1;" x1="866.7598" x2="738.9771" y1="697.6045" y2="697.6045"/><line style="stroke:#000000;stroke-width:1;" x1="738.9771" x2="738.9771" y1="697.6045" y2="729.6045"/><polygon fill="#000000" points="734.9771,719.6045,738.9771,729.6045,742.9771,719.6045,738.9771,723.6045" style="stroke:#000000;stroke-width:1;"/><line style="stroke:#000000;stroke-width:1;" x1="910.8413" x2="910.8413" y1="665.6045" y2="685.6045"/><polygon fill="#000000" points="906.8413,675.6045,910.8413,685.6045,914.8413,675.6045,910.8413,679.6045" style="stroke:#000000;stroke-width:1;"/><line style="stroke:#000000;stroke-width:1;" x1="339.1472" x2="339.1472" y1="233.8545" y2="238.8545"/><line style="stroke:#000000;stroke-width:1;" x1="339.1472" x2="910.8413" y1="238.8545" y2="238.8545"/><line style="stroke:#000000;stroke-width:1;" x1="910.8413" x2="910.8413" y1="238.8545" y2="253.8545"/><polygon fill="#000000" points="906.8413,243.8545,910.8413,253.8545,914.8413,243.8545,910.8413,247.8545" style="stroke:#000000;stroke-width:1;"/><line style="stroke:#000000;stroke-width:1;" x1="910.8413" x2="910.8413" y1="395.7607" y2="400.7607"/><line style="stroke:#000000;stroke-width:1;" x1="910.8413" x2="339.1472" y1="400.7607" y2="400.7607"/><line style="stroke:#000000;stroke-width:1;" x1="339.1472" x2="339.1472" y1="400.7607" y2="415.7607"/><polygon fill="#000000" points="335.1472,405.7607,339.1472,415.7607,343.1472,405.7607,339.1472,409.7607" style="stroke:#000000;stroke-width:1;"/><line style="stroke:#000000;stroke-width:1;" x1="339.1472" x2="339.1472" y1="611.6357" y2="616.6357"/><line style="stroke:#000000;stroke-width:1;" x1="339.1472" x2="910.8413" y1="616.6357" y2="616.6357"/><line style="stroke:#000000;stroke-width:1;" x1="910.8413" x2="910.8413" y1="616.6357" y2="631.6357"/><polygon fill="#000000" points="906.8413,621.6357,910.8413,631.6357,914.8413,621.6357,910.8413,625.6357" style="stroke:#000000;stroke-width:1;"/><line style="stroke:#000000;stroke-width:1;" x1="738.9771" x2="738.9771" y1="913.417" y2="918.417"/><line style="stroke:#000000;stroke-width:1;" x1="738.9771" x2="99.5498" y1="918.417" y2="918.417"/><line style="stroke:#000000;stroke-width:1;" x1="99.5498" x2="99.5498" y1="918.417" y2="933.417"/><polygon fill="#000000" points="95.5498,923.417,99.5498,933.417,103.5498,923.417,99.5498,927.417" style="stroke:#000000;stroke-width:1;"/><line style="stroke:#000000;stroke-width:1;" x1="954.9229" x2="966.9229" y1="697.6045" y2="697.6045"/><line style="stroke:#000000;stroke-width:1;" x1="966.9229" x2="966.9229" y1="697.6045" y2="715.6045"/><line style="stroke:#000000;stroke-width:1;" x1="966.9229" x2="568.7446" y1="715.6045" y2="715.6045"/><line style="stroke:#000000;stroke-width:1;" x1="568.7446" x2="568.7446" y1="715.6045" y2="729.6045"/><polygon fill="#000000" points="564.7446,719.6045,568.7446,729.6045,572.7446,719.6045,568.7446,723.6045" style="stroke:#000000;stroke-width:1;"/><text fill="#000000" font-family="Verdana" font-size="18" lengthAdjust="spacing" textLength="93.6123" x="283.5491" y="96.6719">Pangkalan</text><text fill="#000000" font-family="Verdana" font-size="18" lengthAdjust="spacing" textLength="61.4707" x="791.8394" y="96.6719">Sistem</text><!--SRC=[ZLBRYjim47ttLqpJboIma5ws3Gwb99iGJ2uRcb3w45Xc8zcPbIqPITwoaET-G3-nNzAndUis3zM3aPWpvpBZDtuhCmbvYgG3fqZdQ363Hzoen9f2YpkJ6WjluqxSZUCpH7_ZwPdyo-0rillvRZGQN4CQAwJTezxTVhhTTCvG2xIUF1dz3w7y4B-FnLNe5SQ0Iwc4Thi_lEbqGnWKwE6-n86Iq4-aXkO2TQ8mHTrgjzTwISxB39RHxEFqVXu4ksDv5pZFMa4uA1H29dK1ZGkgHYy89oafQ9p93D0MN0XsDV4k25UOvPGgr10Rcq7bcZkd1WK8z0XOslBIAYJVEySxRnGuP6xIrBlq5YuefIqyIKqEfeinDyxG5QhiUogo5BT79IPyvEU6jJnNcoPtF3vCMqV_4xAKrG4klN_7b0GwOWDvmUO2Yg4PbNTuBajVMy2_47E-O2i0Fk5OQcdHIr16oDh2MZVxu_dD3puiMQ6MbELifKp-iCS8gPCgC_h2mM8q7qRpyG4kVKtr84hgBw3DpxfKVSxdKk5F8yobAqaBvQHRw_t-1Aagy6cFhxe4nhpwmm2FEjgmkALawwldgj19Kd1G7PFDoYa9j5HHLlLb5IKyP84_ltx3C9f4twBP_huQyRrVWQKM5Vz9ZRUV1p9r4fgUbw1Q_vTLMclsfci6BIZ-2m00]--></g></svg>