<svg xmlns="http://www.w3.org/2000/svg" xmlns:xlink="http://www.w3.org/1999/xlink" contentStyleType="text/css" data-diagram-type="ACTIVITY" height="1239px" preserveAspectRatio="none" style="width:1121px;height:1239px;background:#F0F8FF;" version="1.1" viewBox="0 0 1121 1239" width="1121px" zoomAndPan="magnify"><title>**AD-23: Kelola Pengeluaran (Pangkalan)**
Sistem SIM4LON</title><defs/><g><rect fill="#F0F8FF" height="1239" style="stroke:none;stroke-width:1;" width="1121" x="0" y="0"/><g class="title" data-source-line="8"><text fill="#000000" font-family="Verdana" font-size="22" font-weight="bold" lengthAdjust="spacing" textLength="490.6172" x="313.8982" y="35.4209">AD-23: Kelola Pengeluaran (Pangkalan)</text><text fill="#000000" font-family="Verdana" font-size="22" font-weight="bold" lengthAdjust="spacing" textLength="204.8643" x="456.7747" y="61.0303">Sistem SIM4LON</text></g><rect fill="#FFFFFF" height="20.9531" style="stroke:#FFFFFF;stroke-width:1;" width="1098.4136" x="10" y="79.9639"/><ellipse cx="300.4971" cy="115.917" fill="#FFFFFF" rx="10" ry="10" style="stroke:#000000;stroke-width:1;"/><rect fill="#87CEEB" height="33.9688" rx="12.5" ry="12.5" style="stroke:#1565C0;stroke-width:1;" width="185.4746" x="207.7598" y="145.917"/><text fill="#000000" font-family="Verdana" font-size="12" lengthAdjust="spacing" textLength="165.4746" x="217.7598" y="167.0557">Buka halaman Pengeluaran</text><rect fill="#87CEEB" height="33.9688" rx="12.5" ry="12.5" style="stroke:#1565C0;stroke-width:1;" width="72.5469" x="264.2236" y="389.7295"/><text fill="#000000" font-family="Verdana" font-size="12" lengthAdjust="spacing" textLength="52.5469" x="274.2236" y="410.8682">Pilih aksi</text><polygon fill="#87CEEB" points="286.2368,443.6982,314.7573,443.6982,326.7573,455.6982,314.7573,467.6982,286.2368,467.6982,274.2368,455.6982,286.2368,443.6982" style="stroke:#1565C0;stroke-width:1;"/><text fill="#000000" font-family="Verdana" font-size="11" lengthAdjust="spacing" textLength="28.5205" x="286.2368" y="459.5063">Aksi?</text><rect fill="#87CEEB" height="33.9688" rx="12.5" ry="12.5" style="stroke:#1565C0;stroke-width:1;" width="168.0605" x="22.8496" y="503.3076"/><text fill="#000000" font-family="Verdana" font-size="12" lengthAdjust="spacing" textLength="148.0605" x="32.8496" y="524.4463">Klik "Catat Pengeluaran"</text><rect fill="#87CEEB" height="47.9375" rx="12.5" ry="12.5" style="stroke:#1565C0;stroke-width:1;" width="181.7598" x="16" y="611.2451"/><text fill="#000000" font-family="Verdana" font-size="12" lengthAdjust="spacing" textLength="78.2754" x="26" y="632.3838">Pilih kategori</text><text fill="#000000" font-family="Verdana" font-size="12" lengthAdjust="spacing" textLength="161.7598" x="26" y="646.3525">(Operasional/Transport/dll)</text><rect fill="#87CEEB" height="33.9688" rx="12.5" ry="12.5" style="stroke:#1565C0;stroke-width:1;" width="154.291" x="29.7344" y="693.1514"/><text fill="#000000" font-family="Verdana" font-size="12" lengthAdjust="spacing" textLength="134.291" x="39.7344" y="714.29">Masukkan jumlah (Rp)</text><rect fill="#87CEEB" height="33.9688" rx="12.5" ry="12.5" style="stroke:#1565C0;stroke-width:1;" width="90.6113" x="61.5742" y="761.0889"/><text fill="#000000" font-family="Verdana" font-size="12" lengthAdjust="spacing" textLength="70.6113" x="71.5742" y="782.2275">Isi deskripsi</text><rect fill="#87CEEB" height="33.9688" rx="12.5" ry="12.5" style="stroke:#1565C0;stroke-width:1;" width="94.2441" x="59.7578" y="829.0264"/><text fill="#000000" font-family="Verdana" font-size="12" lengthAdjust="spacing" textLength="74.2441" x="69.7578" y="850.165">Pilih tanggal</text><rect fill="#87CEEB" height="33.9688" rx="12.5" ry="12.5" style="stroke:#1565C0;stroke-width:1;" width="101.5566" x="56.1016" y="896.9639"/><text fill="#000000" font-family="Verdana" font-size="12" lengthAdjust="spacing" textLength="81.5566" x="66.1016" y="918.1025">Klik "Simpan"</text><rect fill="#87CEEB" height="33.9688" rx="12.5" ry="12.5" style="stroke:#1565C0;stroke-width:1;" width="167.0996" x="23.3301" y="1058.8701"/><text fill="#000000" font-family="Verdana" font-size="12" lengthAdjust="spacing" textLength="147.0996" x="33.3301" y="1080.0088">Tampilkan pesan sukses</text><rect fill="#87CEEB" height="33.9688" rx="12.5" ry="12.5" style="stroke:#1565C0;stroke-width:1;" width="167.873" x="216.1973" y="503.3076"/><text fill="#000000" font-family="Verdana" font-size="12" lengthAdjust="spacing" textLength="147.873" x="226.1973" y="524.4463">Klik "Edit" pada expense</text><rect fill="#87CEEB" height="33.9688" rx="12.5" ry="12.5" style="stroke:#1565C0;stroke-width:1;" width="183.2422" x="208.5127" y="679.1826"/><text fill="#000000" font-family="Verdana" font-size="12" lengthAdjust="spacing" textLength="163.2422" x="218.5127" y="700.3213">Ubah data yang diperlukan</text><rect fill="#87CEEB" height="33.9688" rx="12.5" ry="12.5" style="stroke:#1565C0;stroke-width:1;" width="101.5566" x="249.3555" y="747.1201"/><text fill="#000000" font-family="Verdana" font-size="12" lengthAdjust="spacing" textLength="81.5566" x="259.3555" y="768.2588">Klik "Simpan"</text><rect fill="#87CEEB" height="33.9688" rx="12.5" ry="12.5" style="stroke:#1565C0;stroke-width:1;" width="167.0996" x="216.584" y="882.9951"/><text fill="#000000" font-family="Verdana" font-size="12" lengthAdjust="spacing" textLength="147.0996" x="226.584" y="904.1338">Tampilkan pesan sukses</text><rect fill="#87CEEB" height="33.9688" rx="12.5" ry="12.5" style="stroke:#1565C0;stroke-width:1;" width="182.4863" x="403.2344" y="503.3076"/><text fill="#000000" font-family="Verdana" font-size="12" lengthAdjust="spacing" textLength="162.4863" x="413.2344" y="524.4463">Klik "Hapus" pada expense</text><rect fill="#87CEEB" height="33.9688" rx="12.5" ry="12.5" style="stroke:#1565C0;stroke-width:1;" width="124.1855" x="432.3848" y="611.2451"/><text fill="#000000" font-family="Verdana" font-size="12" lengthAdjust="spacing" textLength="104.1855" x="442.3848" y="632.3838">Konfirmasi hapus</text><rect fill="#87CEEB" height="33.9688" rx="12.5" ry="12.5" style="stroke:#1565C0;stroke-width:1;" width="167.0996" x="410.9277" y="747.1201"/><text fill="#000000" font-family="Verdana" font-size="12" lengthAdjust="spacing" textLength="147.0996" x="420.9277" y="768.2588">Tampilkan pesan sukses</text><polygon fill="#87CEEB" points="300.4971,1112.8389,300.4971,1112.8389,312.4971,1124.8389,300.4971,1136.8389,300.4971,1136.8389,288.4971,1124.8389,300.4971,1112.8389" style="stroke:#1565C0;stroke-width:1;"/><rect fill="#87CEEB" height="33.9688" rx="12.5" ry="12.5" style="stroke:#1565C0;stroke-width:1;" width="106.1211" x="247.4365" y="1156.8389"/><text fill="#000000" font-family="Verdana" font-size="12" lengthAdjust="spacing" textLength="86.1211" x="257.4365" y="1177.9775">Refresh daftar</text><ellipse cx="300.4971" cy="1221.8076" fill="none" rx="11" ry="11" style="stroke:#000000;stroke-width:1;"/><ellipse cx="300.4971" cy="1221.8076" fill="#FFFFFF" rx="6" ry="6" style="stroke:#000000;stroke-width:1;"/><line style="stroke:#000000;stroke-width:1;" x1="10" x2="10" y1="79.9639" y2="1232.8076"/><rect fill="#87CEEB" height="47.9375" rx="12.5" ry="12.5" style="stroke:#1565C0;stroke-width:1;" width="149.791" x="784.0967" y="199.8857"/><text fill="#000000" font-family="Verdana" font-size="12" lengthAdjust="spacing" textLength="129.791" x="794.0967" y="221.0244">Load daftar expenses</text><text fill="#000000" font-family="Verdana" font-size="12" lengthAdjust="spacing" textLength="80.877" x="794.0967" y="234.9932">pangkalan ini</text><rect fill="#87CEEB" height="33.9688" rx="12.5" ry="12.5" style="stroke:#1565C0;stroke-width:1;" width="168.3242" x="774.8301" y="267.8232"/><text fill="#000000" font-family="Verdana" font-size="12" lengthAdjust="spacing" textLength="148.3242" x="784.8301" y="288.9619">Hitung total per kategori</text><rect fill="#87CEEB" height="47.9375" rx="12.5" ry="12.5" style="stroke:#1565C0;stroke-width:1;" width="163.291" x="777.3467" y="321.792"/><text fill="#000000" font-family="Verdana" font-size="12" lengthAdjust="spacing" textLength="143.291" x="787.3467" y="342.9307">Tampilkan dengan filter</text><text fill="#000000" font-family="Verdana" font-size="12" lengthAdjust="spacing" textLength="112.1953" x="787.3467" y="356.8994">(tanggal, kategori)</text><rect fill="#87CEEB" height="33.9688" rx="12.5" ry="12.5" style="stroke:#1565C0;stroke-width:1;" width="169.1094" x="595.7207" y="557.2764"/><text fill="#000000" font-family="Verdana" font-size="12" lengthAdjust="spacing" textLength="149.1094" x="605.7207" y="578.415">Tampilkan form expense</text><rect fill="#87CEEB" height="33.9688" rx="12.5" ry="12.5" style="stroke:#1565C0;stroke-width:1;" width="101.4688" x="629.541" y="950.9326"/><text fill="#000000" font-family="Verdana" font-size="12" lengthAdjust="spacing" textLength="81.4688" x="639.541" y="972.0713">Validasi input</text><rect fill="#87CEEB" height="33.9688" rx="12.5" ry="12.5" style="stroke:#1565C0;stroke-width:1;" width="150.5996" x="604.9756" y="1004.9014"/><text fill="#000000" font-family="Verdana" font-size="12" lengthAdjust="spacing" textLength="130.5996" x="614.9756" y="1026.04">Simpan data expense</text><rect fill="#87CEEB" height="33.9688" rx="12.5" ry="12.5" style="stroke:#1565C0;stroke-width:1;" width="134.3809" x="791.4385" y="557.2764"/><text fill="#000000" font-family="Verdana" font-size="12" lengthAdjust="spacing" textLength="114.3809" x="801.4385" y="578.415">Load data expense</text><rect fill="#87CEEB" height="33.9688" rx="12.5" ry="12.5" style="stroke:#1565C0;stroke-width:1;" width="141.4238" x="787.917" y="611.2451"/><text fill="#000000" font-family="Verdana" font-size="12" lengthAdjust="spacing" textLength="121.4238" x="797.917" y="632.3838">Tampilkan form edit</text><rect fill="#87CEEB" height="33.9688" rx="12.5" ry="12.5" style="stroke:#1565C0;stroke-width:1;" width="148.8418" x="784.208" y="815.0576"/><text fill="#000000" font-family="Verdana" font-size="12" lengthAdjust="spacing" textLength="128.8418" x="794.208" y="836.1963">Update data expense</text><rect fill="#87CEEB" height="33.9688" rx="12.5" ry="12.5" style="stroke:#1565C0;stroke-width:1;" width="149.3984" x="953.1543" y="557.2764"/><text fill="#000000" font-family="Verdana" font-size="12" lengthAdjust="spacing" textLength="129.3984" x="963.1543" y="578.415">Tampilkan konfirmasi</text><rect fill="#87CEEB" height="33.9688" rx="12.5" ry="12.5" style="stroke:#1565C0;stroke-width:1;" width="113.9668" x="970.8701" y="679.1826"/><text fill="#000000" font-family="Verdana" font-size="12" lengthAdjust="spacing" textLength="93.9668" x="980.8701" y="700.3213">Delete expense</text><line style="stroke:#000000;stroke-width:1;" x1="589.7207" x2="589.7207" y1="79.9639" y2="1232.8076"/><line style="stroke:#000000;stroke-width:1;" x1="1106.5527" x2="1106.5527" y1="79.9639" y2="1232.8076"/><line style="stroke:#000000;stroke-width:1;" x1="300.4971" x2="300.4971" y1="125.917" y2="145.917"/><polygon fill="#000000" points="296.4971,135.917,300.4971,145.917,304.4971,135.917,300.4971,139.917" style="stroke:#000000;stroke-width:1;"/><line style="stroke:#000000;stroke-width:1;" x1="106.8799" x2="106.8799" y1="659.1826" y2="693.1514"/><polygon fill="#000000" points="102.8799,683.1514,106.8799,693.1514,110.8799,683.1514,106.8799,687.1514" style="stroke:#000000;stroke-width:1;"/><line style="stroke:#000000;stroke-width:1;" x1="106.8799" x2="106.8799" y1="727.1201" y2="761.0889"/><polygon fill="#000000" points="102.8799,751.0889,106.8799,761.0889,110.8799,751.0889,106.8799,755.0889" style="stroke:#000000;stroke-width:1;"/><line style="stroke:#000000;stroke-width:1;" x1="106.8799" x2="106.8799" y1="795.0576" y2="829.0264"/><polygon fill="#000000" points="102.8799,819.0264,106.8799,829.0264,110.8799,819.0264,106.8799,823.0264" style="stroke:#000000;stroke-width:1;"/><line style="stroke:#000000;stroke-width:1;" x1="106.8799" x2="106.8799" y1="862.9951" y2="896.9639"/><polygon fill="#000000" points="102.8799,886.9639,106.8799,896.9639,110.8799,886.9639,106.8799,890.9639" style="stroke:#000000;stroke-width:1;"/><line style="stroke:#000000;stroke-width:1;" x1="300.1338" x2="300.1338" y1="713.1514" y2="747.1201"/><polygon fill="#000000" points="296.1338,737.1201,300.1338,747.1201,304.1338,737.1201,300.1338,741.1201" style="stroke:#000000;stroke-width:1;"/><line style="stroke:#000000;stroke-width:1;" x1="274.2368" x2="106.8799" y1="455.6982" y2="455.6982"/><line style="stroke:#000000;stroke-width:1;" x1="106.8799" x2="106.8799" y1="455.6982" y2="503.3076"/><polygon fill="#000000" points="102.8799,493.3076,106.8799,503.3076,110.8799,493.3076,106.8799,497.3076" style="stroke:#000000;stroke-width:1;"/><text fill="#000000" font-family="Verdana" font-size="11" lengthAdjust="spacing" textLength="74.1479" x="106.8799" y="483.311">Tambah Baru</text><line style="stroke:#000000;stroke-width:1;" x1="326.7573" x2="494.4775" y1="455.6982" y2="455.6982"/><line style="stroke:#000000;stroke-width:1;" x1="494.4775" x2="494.4775" y1="455.6982" y2="503.3076"/><polygon fill="#000000" points="490.4775,493.3076,494.4775,503.3076,498.4775,493.3076,494.4775,497.3076" style="stroke:#000000;stroke-width:1;"/><text fill="#000000" font-family="Verdana" font-size="11" lengthAdjust="spacing" textLength="34.6973" x="494.4775" y="483.311">Hapus</text><line style="stroke:#000000;stroke-width:1;" x1="300.4971" x2="300.4971" y1="467.6982" y2="479.568"/><line style="stroke:#000000;stroke-width:1;" x1="300.4971" x2="300.1338" y1="479.568" y2="479.568"/><line style="stroke:#000000;stroke-width:1;" x1="300.1338" x2="300.1338" y1="479.568" y2="503.3076"/><polygon fill="#000000" points="296.1338,493.3076,300.1338,503.3076,304.1338,493.3076,300.1338,497.3076" style="stroke:#000000;stroke-width:1;"/><text fill="#000000" font-family="Verdana" font-size="11" lengthAdjust="spacing" textLength="21.3018" x="300.1338" y="484.311">Edit</text><line style="stroke:#000000;stroke-width:1;" x1="106.8799" x2="106.8799" y1="1092.8389" y2="1124.8389"/><line style="stroke:#000000;stroke-width:1;" x1="106.8799" x2="288.4971" y1="1124.8389" y2="1124.8389"/><polygon fill="#000000" points="278.4971,1120.8389,288.4971,1124.8389,278.4971,1128.8389,282.4971,1124.8389" style="stroke:#000000;stroke-width:1;"/><line style="stroke:#000000;stroke-width:1;" x1="494.4775" x2="494.4775" y1="781.0889" y2="1124.8389"/><line style="stroke:#000000;stroke-width:1;" x1="494.4775" x2="312.4971" y1="1124.8389" y2="1124.8389"/><polygon fill="#000000" points="322.4971,1120.8389,312.4971,1124.8389,322.4971,1128.8389,318.4971,1124.8389" style="stroke:#000000;stroke-width:1;"/><line style="stroke:#000000;stroke-width:1;" x1="300.1338" x2="300.1338" y1="916.9639" y2="1043.8701"/><line style="stroke:#000000;stroke-width:1;" x1="300.1338" x2="300.4971" y1="1043.8701" y2="1043.8701"/><line style="stroke:#000000;stroke-width:1;" x1="300.4971" x2="300.4971" y1="1043.8701" y2="1112.8389"/><polygon fill="#000000" points="296.4971,1102.8389,300.4971,1112.8389,304.4971,1102.8389,300.4971,1106.8389" style="stroke:#000000;stroke-width:1;"/><line style="stroke:#000000;stroke-width:1;" x1="300.4971" x2="300.4971" y1="423.6982" y2="443.6982"/><polygon fill="#000000" points="296.4971,433.6982,300.4971,443.6982,304.4971,433.6982,300.4971,437.6982" style="stroke:#000000;stroke-width:1;"/><line style="stroke:#000000;stroke-width:1;" x1="300.4971" x2="300.4971" y1="1136.8389" y2="1156.8389"/><polygon fill="#000000" points="296.4971,1146.8389,300.4971,1156.8389,304.4971,1146.8389,300.4971,1150.8389" style="stroke:#000000;stroke-width:1;"/><line style="stroke:#000000;stroke-width:1;" x1="300.4971" x2="300.4971" y1="1190.8076" y2="1210.8076"/><polygon fill="#000000" points="296.4971,1200.8076,300.4971,1210.8076,304.4971,1200.8076,300.4971,1204.8076" style="stroke:#000000;stroke-width:1;"/><line style="stroke:#000000;stroke-width:1;" x1="858.9922" x2="858.9922" y1="247.8232" y2="267.8232"/><polygon fill="#000000" points="854.9922,257.8232,858.9922,267.8232,862.9922,257.8232,858.9922,261.8232" style="stroke:#000000;stroke-width:1;"/><line style="stroke:#000000;stroke-width:1;" x1="858.9922" x2="858.9922" y1="301.792" y2="321.792"/><polygon fill="#000000" points="854.9922,311.792,858.9922,321.792,862.9922,311.792,858.9922,315.792" style="stroke:#000000;stroke-width:1;"/><line style="stroke:#000000;stroke-width:1;" x1="680.2754" x2="680.2754" y1="984.9014" y2="1004.9014"/><polygon fill="#000000" points="676.2754,994.9014,680.2754,1004.9014,684.2754,994.9014,680.2754,998.9014" style="stroke:#000000;stroke-width:1;"/><line style="stroke:#000000;stroke-width:1;" x1="858.6289" x2="858.6289" y1="591.2451" y2="611.2451"/><polygon fill="#000000" points="854.6289,601.2451,858.6289,611.2451,862.6289,601.2451,858.6289,605.2451" style="stroke:#000000;stroke-width:1;"/><line style="stroke:#000000;stroke-width:1;" x1="300.4971" x2="300.4971" y1="179.8857" y2="184.8857"/><line style="stroke:#000000;stroke-width:1;" x1="300.4971" x2="858.9922" y1="184.8857" y2="184.8857"/><line style="stroke:#000000;stroke-width:1;" x1="858.9922" x2="858.9922" y1="184.8857" y2="199.8857"/><polygon fill="#000000" points="854.9922,189.8857,858.9922,199.8857,862.9922,189.8857,858.9922,193.8857" style="stroke:#000000;stroke-width:1;"/><line style="stroke:#000000;stroke-width:1;" x1="858.9922" x2="858.9922" y1="369.7295" y2="374.7295"/><line style="stroke:#000000;stroke-width:1;" x1="858.9922" x2="300.4971" y1="374.7295" y2="374.7295"/><line style="stroke:#000000;stroke-width:1;" x1="300.4971" x2="300.4971" y1="374.7295" y2="389.7295"/><polygon fill="#000000" points="296.4971,379.7295,300.4971,389.7295,304.4971,379.7295,300.4971,383.7295" style="stroke:#000000;stroke-width:1;"/><line style="stroke:#000000;stroke-width:1;" x1="106.8799" x2="106.8799" y1="537.2764" y2="542.2764"/><line style="stroke:#000000;stroke-width:1;" x1="106.8799" x2="680.2754" y1="542.2764" y2="542.2764"/><line style="stroke:#000000;stroke-width:1;" x1="680.2754" x2="680.2754" y1="542.2764" y2="557.2764"/><polygon fill="#000000" points="676.2754,547.2764,680.2754,557.2764,684.2754,547.2764,680.2754,551.2764" style="stroke:#000000;stroke-width:1;"/><line style="stroke:#000000;stroke-width:1;" x1="680.2754" x2="680.2754" y1="591.2451" y2="596.2451"/><line style="stroke:#000000;stroke-width:1;" x1="680.2754" x2="106.8799" y1="596.2451" y2="596.2451"/><line style="stroke:#000000;stroke-width:1;" x1="106.8799" x2="106.8799" y1="596.2451" y2="611.2451"/><polygon fill="#000000" points="102.8799,601.2451,106.8799,611.2451,110.8799,601.2451,106.8799,605.2451" style="stroke:#000000;stroke-width:1;"/><line style="stroke:#000000;stroke-width:1;" x1="106.8799" x2="106.8799" y1="930.9326" y2="935.9326"/><line style="stroke:#000000;stroke-width:1;" x1="106.8799" x2="680.2754" y1="935.9326" y2="935.9326"/><line style="stroke:#000000;stroke-width:1;" x1="680.2754" x2="680.2754" y1="935.9326" y2="950.9326"/><polygon fill="#000000" points="676.2754,940.9326,680.2754,950.9326,684.2754,940.9326,680.2754,944.9326" style="stroke:#000000;stroke-width:1;"/><line style="stroke:#000000;stroke-width:1;" x1="680.2754" x2="680.2754" y1="1038.8701" y2="1043.8701"/><line style="stroke:#000000;stroke-width:1;" x1="680.2754" x2="106.8799" y1="1043.8701" y2="1043.8701"/><line style="stroke:#000000;stroke-width:1;" x1="106.8799" x2="106.8799" y1="1043.8701" y2="1058.8701"/><polygon fill="#000000" points="102.8799,1048.8701,106.8799,1058.8701,110.8799,1048.8701,106.8799,1052.8701" style="stroke:#000000;stroke-width:1;"/><line style="stroke:#000000;stroke-width:1;" x1="300.1338" x2="300.1338" y1="537.2764" y2="542.2764"/><line style="stroke:#000000;stroke-width:1;" x1="300.1338" x2="858.6289" y1="542.2764" y2="542.2764"/><line style="stroke:#000000;stroke-width:1;" x1="858.6289" x2="858.6289" y1="542.2764" y2="557.2764"/><polygon fill="#000000" points="854.6289,547.2764,858.6289,557.2764,862.6289,547.2764,858.6289,551.2764" style="stroke:#000000;stroke-width:1;"/><line style="stroke:#000000;stroke-width:1;" x1="858.6289" x2="858.6289" y1="645.2139" y2="662.7139"/><line style="stroke:#000000;stroke-width:1;" x1="858.6289" x2="300.1338" y1="662.7139" y2="662.7139"/><line style="stroke:#000000;stroke-width:1;" x1="300.1338" x2="300.1338" y1="662.7139" y2="679.1826"/><polygon fill="#000000" points="296.1338,669.1826,300.1338,679.1826,304.1338,669.1826,300.1338,673.1826" style="stroke:#000000;stroke-width:1;"/><line style="stroke:#000000;stroke-width:1;" x1="300.1338" x2="300.1338" y1="781.0889" y2="798.5889"/><line style="stroke:#000000;stroke-width:1;" x1="300.1338" x2="858.6289" y1="798.5889" y2="798.5889"/><line style="stroke:#000000;stroke-width:1;" x1="858.6289" x2="858.6289" y1="798.5889" y2="815.0576"/><polygon fill="#000000" points="854.6289,805.0576,858.6289,815.0576,862.6289,805.0576,858.6289,809.0576" style="stroke:#000000;stroke-width:1;"/><line style="stroke:#000000;stroke-width:1;" x1="858.6289" x2="858.6289" y1="849.0264" y2="866.5264"/><line style="stroke:#000000;stroke-width:1;" x1="858.6289" x2="300.1338" y1="866.5264" y2="866.5264"/><line style="stroke:#000000;stroke-width:1;" x1="300.1338" x2="300.1338" y1="866.5264" y2="882.9951"/><polygon fill="#000000" points="296.1338,872.9951,300.1338,882.9951,304.1338,872.9951,300.1338,876.9951" style="stroke:#000000;stroke-width:1;"/><line style="stroke:#000000;stroke-width:1;" x1="494.4775" x2="494.4775" y1="537.2764" y2="542.2764"/><line style="stroke:#000000;stroke-width:1;" x1="494.4775" x2="1027.8535" y1="542.2764" y2="542.2764"/><line style="stroke:#000000;stroke-width:1;" x1="1027.8535" x2="1027.8535" y1="542.2764" y2="557.2764"/><polygon fill="#000000" points="1023.8535,547.2764,1027.8535,557.2764,1031.8535,547.2764,1027.8535,551.2764" style="stroke:#000000;stroke-width:1;"/><line style="stroke:#000000;stroke-width:1;" x1="1027.8535" x2="1027.8535" y1="591.2451" y2="596.2451"/><line style="stroke:#000000;stroke-width:1;" x1="1027.8535" x2="494.4775" y1="596.2451" y2="596.2451"/><line style="stroke:#000000;stroke-width:1;" x1="494.4775" x2="494.4775" y1="596.2451" y2="611.2451"/><polygon fill="#000000" points="490.4775,601.2451,494.4775,611.2451,498.4775,601.2451,494.4775,605.2451" style="stroke:#000000;stroke-width:1;"/><line style="stroke:#000000;stroke-width:1;" x1="494.4775" x2="494.4775" y1="645.2139" y2="662.7139"/><line style="stroke:#000000;stroke-width:1;" x1="494.4775" x2="1027.8535" y1="662.7139" y2="662.7139"/><line style="stroke:#000000;stroke-width:1;" x1="1027.8535" x2="1027.8535" y1="662.7139" y2="679.1826"/><polygon fill="#000000" points="1023.8535,669.1826,1027.8535,679.1826,1031.8535,669.1826,1027.8535,673.1826" style="stroke:#000000;stroke-width:1;"/><line style="stroke:#000000;stroke-width:1;" x1="1027.8535" x2="1027.8535" y1="713.1514" y2="730.6514"/><line style="stroke:#000000;stroke-width:1;" x1="1027.8535" x2="494.4775" y1="730.6514" y2="730.6514"/><line style="stroke:#000000;stroke-width:1;" x1="494.4775" x2="494.4775" y1="730.6514" y2="747.1201"/><polygon fill="#000000" points="490.4775,737.1201,494.4775,747.1201,498.4775,737.1201,494.4775,741.1201" style="stroke:#000000;stroke-width:1;"/><text fill="#000000" font-family="Verdana" font-size="18" lengthAdjust="spacing" textLength="93.6123" x="253.0542" y="96.6719">Pangkalan</text><text fill="#000000" font-family="Verdana" font-size="18" lengthAdjust="spacing" textLength="61.4707" x="817.4014" y="96.6719">Sistem</text><!--SRC=[hLJ1Jjj04BtlLspJIn9HGQ4KP1-g94G21Kf4eATSXkpOtdgzkzfTjqNAntTYEua3AQ9gSt3adJTltdjZ-rt8i41k5KZDV2wr1GS5VuH5dZfJQZ4ooZZ-FZbApfEaXHWiWlmXmzFmEVByR3GU3_SXZHFe6jJ7qy-dYwCMQWeko22DVa689ybn8lP2zp0oAYda_VxWuiFnISGdg8m2FaMTeYgfN_Fk57IQWmBTw_VdUYPzm8BFhcu-NTz-PMovAI-P3pIBHSCo1vxHKK7jBQgOq7NxaaNN1WGNa50BnryMjKS_9yaD6PTQnYowbA7KAGycWE8M7SyXO6hSgdOFXPKg9woW6VINI1NGpNKt44iAwc23xiMxGgEfL3BZa7iYOlwd38kCTmTq-wN75k2HTudz4J8-15Vs6ATVD54ovvqH10XjLvsuAbUNZRsgOIimCQvOksp3MvAgZbhMMZKvkINFu6bve0xlQPYtneL3eLIlfebkm9VvQiJtib2ajtjdrwKhBoaPdpjfLpPR0vfyuhQlcIpiQsQ-WPA2fD1YR1cQrhg9rXZWBVQsWLZqT2Nfj7NQG1tvMCYma_NgeCCjYBtiE_AQn-cvZXSx8CRN53wiTbxHF5652qdvAtgSzLzbzM290lzNB9TWIx-JItNonc2svBdHYNG5h1-6_M8c6nIzmZJcZyGNg91C_ei_rA9-znYBxZ1nwBFcan3JjyJOtm00]--></g></svg>