<svg xmlns="http://www.w3.org/2000/svg" xmlns:xlink="http://www.w3.org/1999/xlink" contentStyleType="text/css" data-diagram-type="SEQUENCE" height="1434px" preserveAspectRatio="none" style="width:889px;height:1434px;background:#FEFEFE;" version="1.1" viewBox="0 0 889 1434" width="889px" zoomAndPan="magnify"><title>SD-01: LOGIN
&lt;size:10&gt;Sistem SIM4LON&lt;/size&gt;</title><defs/><g><rect fill="#FEFEFE" height="1434" style="stroke:none;stroke-width:1;" width="889" x="0" y="0"/><text fill="#000000" font-family="Verdana" font-size="22" font-weight="bold" lengthAdjust="spacing" textLength="167.6855" x="359.5762" y="35.4209">SD-01: LOGIN</text><text fill="#000000" font-family="Verdana" font-size="10" font-weight="bold" lengthAdjust="spacing" textLength="93.1201" x="396.8589" y="49.8916">Sistem SIM4LON</text><g><title>.u.LoginPage</title><rect fill="#FFFFFF" height="1063.4609" style="stroke:#000000;stroke-width:1;" width="10" x="274.1509" y="214.8125"/></g><g><title>.u.AuthService</title><rect fill="#FFFFFF" height="803.5313" style="stroke:#000000;stroke-width:1;" width="10" x="498.7266" y="374.4766"/></g><g><title>.u.users</title><rect fill="#FFFFFF" height="29.1328" style="stroke:#000000;stroke-width:1;" width="10" x="712.6826" y="418.7422"/></g><g><title>.u.users</title><rect fill="#FFFFFF" height="29.1328" style="stroke:#000000;stroke-width:1;" width="10" x="712.6826" y="973.9453"/></g><g><title>.u.activity_logs</title><rect fill="#FFFFFF" height="29.1328" style="stroke:#000000;stroke-width:1;" width="10" x="791.2178" y="1119.7422"/></g><rect fill="#FFFFFF" height="808.3984" rx="2.5" ry="2.5" style="stroke:#000000;stroke-width:1;" width="857.8379" x="15" y="462.875"/><path d="M15,568.5391 L872.8379,568.5391 L872.8379,1268.7734 A2.5,2.5 0 0 1 870.3379,1271.2734 L17.5,1271.2734 A2.5,2.5 0 0 1 15,1268.7734 L15,568.5391" fill="#FFFFFF" style="stroke:none;stroke-width:1;"/><rect fill="#FFFFFF" height="601.5313" rx="2.5" ry="2.5" style="stroke:#000000;stroke-width:1;" width="837.8379" x="25" y="662.7422"/><path d="M25,753.2734 L862.8379,753.2734 L862.8379,1261.7734 A2.5,2.5 0 0 1 860.3379,1264.2734 L27.5,1264.2734 A2.5,2.5 0 0 1 25,1261.7734 L25,753.2734" fill="#FFFFFF" style="stroke:none;stroke-width:1;"/><rect fill="#FFFFFF" height="482.1953" rx="2.5" ry="2.5" style="stroke:#000000;stroke-width:1;" width="817.8379" x="35" y="775.0781"/><path d="M35,880.7422 L852.8379,880.7422 L852.8379,1254.7734 A2.5,2.5 0 0 1 850.3379,1257.2734 L37.5,1257.2734 A2.5,2.5 0 0 1 35,1254.7734 L35,880.7422" fill="#FFFFFF" style="stroke:none;stroke-width:1;"/><g class="participant-lifeline" data-entity-uid="part1" data-qualified-name="User" id="part1-lifeline"><g><title>.u.User</title><rect fill="#000000" fill-opacity="0.00000" height="1213.125" width="8" x="59.9551" y="140.5469"/><line style="stroke:#000000;stroke-width:1;stroke-dasharray:5,5;" x1="63" x2="63" y1="140.5469" y2="1353.6719"/></g></g><g class="participant-lifeline" data-entity-uid="part2" data-qualified-name="LP" id="part2-lifeline"><g><title>.u.LoginPage</title><rect fill="#000000" fill-opacity="0.00000" height="1213.125" width="8" x="275.1509" y="140.5469"/><line style="stroke:#000000;stroke-width:1;stroke-dasharray:5,5;" x1="278.8828" x2="278.8828" y1="140.5469" y2="1353.6719"/></g></g><g class="participant-lifeline" data-entity-uid="part3" data-qualified-name="AS" id="part3-lifeline"><g><title>.u.AuthService</title><rect fill="#000000" fill-opacity="0.00000" height="1213.125" width="8" x="499.7266" y="140.5469"/><line style="stroke:#000000;stroke-width:1;stroke-dasharray:5,5;" x1="503.4497" x2="503.4497" y1="140.5469" y2="1353.6719"/></g></g><g class="participant-lifeline" data-entity-uid="part4" data-qualified-name="UsersDB" id="part4-lifeline"><g><title>.u.users</title><rect fill="#000000" fill-opacity="0.00000" height="1213.125" width="8" x="713.6826" y="140.5469"/><line style="stroke:#000000;stroke-width:1;stroke-dasharray:5,5;" x1="716.7676" x2="716.7676" y1="140.5469" y2="1353.6719"/></g></g><g class="participant-lifeline" data-entity-uid="part5" data-qualified-name="LogsDB" id="part5-lifeline"><g><title>.u.activity_logs</title><rect fill="#000000" fill-opacity="0.00000" height="1213.125" width="8" x="792.2178" y="140.5469"/><line style="stroke:#000000;stroke-width:1;stroke-dasharray:5,5;" x1="795.5977" x2="795.5977" y1="140.5469" y2="1353.6719"/></g></g><g class="participant participant-head" data-entity-uid="part1" data-qualified-name="User" id="part1-head"><text fill="#000000" font-family="Verdana" font-size="14" lengthAdjust="spacing" text-decoration="underline" textLength="31.9102" x="45" y="137.2451">User</text><ellipse cx="63.9551" cy="72.25" fill="#FFFFFF" rx="8" ry="8" style="stroke:#000000;stroke-width:1;"/><path d="M63.9551,80.25 L63.9551,107.25 M50.9551,88.25 L76.9551,88.25 M63.9551,107.25 L50.9551,122.25 M63.9551,107.25 L76.9551,122.25" fill="none" style="stroke:#000000;stroke-width:1;"/></g><g class="participant participant-tail" data-entity-uid="part1" data-qualified-name="User" id="part1-tail"><text fill="#000000" font-family="Verdana" font-size="14" lengthAdjust="spacing" text-decoration="underline" textLength="31.9102" x="45" y="1365.667">User</text><ellipse cx="63.9551" cy="1377.9688" fill="#FFFFFF" rx="8" ry="8" style="stroke:#000000;stroke-width:1;"/><path d="M63.9551,1385.9688 L63.9551,1412.9688 M50.9551,1393.9688 L76.9551,1393.9688 M63.9551,1412.9688 L50.9551,1427.9688 M63.9551,1412.9688 L76.9551,1427.9688" fill="none" style="stroke:#000000;stroke-width:1;"/></g><g class="participant participant-head" data-entity-uid="part2" data-qualified-name="LP" id="part2-head"><text fill="#000000" font-family="Verdana" font-size="14" lengthAdjust="spacing" text-decoration="underline" textLength="72.5361" x="239.8828" y="137.2451">LoginPage</text><path d="M258.6509,96.25 L258.6509,120.25 M258.6509,108.25 L275.6509,108.25" fill="none" style="stroke:#000000;stroke-width:1;"/><ellipse cx="287.6509" cy="108.25" fill="#FFFFFF" rx="12" ry="12" style="stroke:#000000;stroke-width:1;"/></g><g class="participant participant-tail" data-entity-uid="part2" data-qualified-name="LP" id="part2-tail"><text fill="#000000" font-family="Verdana" font-size="14" lengthAdjust="spacing" text-decoration="underline" textLength="72.5361" x="239.8828" y="1365.667">LoginPage</text><path d="M258.6509,1372.9688 L258.6509,1396.9688 M258.6509,1384.9688 L275.6509,1384.9688" fill="none" style="stroke:#000000;stroke-width:1;"/><ellipse cx="287.6509" cy="1384.9688" fill="#FFFFFF" rx="12" ry="12" style="stroke:#000000;stroke-width:1;"/></g><g class="participant participant-head" data-entity-uid="part3" data-qualified-name="AS" id="part3-head"><text fill="#000000" font-family="Verdana" font-size="14" lengthAdjust="spacing" text-decoration="underline" textLength="84.5537" x="458.4497" y="137.2451">AuthService</text><ellipse cx="503.7266" cy="108.25" fill="#FFFFFF" rx="12" ry="12" style="stroke:#000000;stroke-width:1;"/><polygon fill="#000000" points="499.7266,96.25,505.7266,91.25,503.7266,96.25,505.7266,101.25,499.7266,96.25" style="stroke:#000000;stroke-width:1;"/></g><g class="participant participant-tail" data-entity-uid="part3" data-qualified-name="AS" id="part3-tail"><text fill="#000000" font-family="Verdana" font-size="14" lengthAdjust="spacing" text-decoration="underline" textLength="84.5537" x="458.4497" y="1365.667">AuthService</text><ellipse cx="503.7266" cy="1384.9688" fill="#FFFFFF" rx="12" ry="12" style="stroke:#000000;stroke-width:1;"/><polygon fill="#000000" points="499.7266,1372.9688,505.7266,1367.9688,503.7266,1372.9688,505.7266,1377.9688,499.7266,1372.9688" style="stroke:#000000;stroke-width:1;"/></g><g class="participant participant-head" data-entity-uid="part4" data-qualified-name="UsersDB" id="part4-head"><text fill="#000000" font-family="Verdana" font-size="14" lengthAdjust="spacing" text-decoration="underline" textLength="37.8301" x="695.7676" y="137.2451">users</text><path d="M699.6826,88.25 C699.6826,78.25 717.6826,78.25 717.6826,78.25 C717.6826,78.25 735.6826,78.25 735.6826,88.25 L735.6826,114.25 C735.6826,124.25 717.6826,124.25 717.6826,124.25 C717.6826,124.25 699.6826,124.25 699.6826,114.25 L699.6826,88.25" fill="#FFFFFF" style="stroke:#000000;stroke-width:1;"/><path d="M699.6826,88.25 C699.6826,98.25 717.6826,98.25 717.6826,98.25 C717.6826,98.25 735.6826,98.25 735.6826,88.25" fill="none" style="stroke:#000000;stroke-width:1;"/></g><g class="participant participant-tail" data-entity-uid="part4" data-qualified-name="UsersDB" id="part4-tail"><text fill="#000000" font-family="Verdana" font-size="14" lengthAdjust="spacing" text-decoration="underline" textLength="37.8301" x="695.7676" y="1365.667">users</text><path d="M699.6826,1378.9688 C699.6826,1368.9688 717.6826,1368.9688 717.6826,1368.9688 C717.6826,1368.9688 735.6826,1368.9688 735.6826,1378.9688 L735.6826,1404.9688 C735.6826,1414.9688 717.6826,1414.9688 717.6826,1414.9688 C717.6826,1414.9688 699.6826,1414.9688 699.6826,1404.9688 L699.6826,1378.9688" fill="#FFFFFF" style="stroke:#000000;stroke-width:1;"/><path d="M699.6826,1378.9688 C699.6826,1388.9688 717.6826,1388.9688 717.6826,1388.9688 C717.6826,1388.9688 735.6826,1388.9688 735.6826,1378.9688" fill="none" style="stroke:#000000;stroke-width:1;"/></g><g class="participant participant-head" data-entity-uid="part5" data-qualified-name="LogsDB" id="part5-head"><text fill="#000000" font-family="Verdana" font-size="14" lengthAdjust="spacing" text-decoration="underline" textLength="87.2402" x="749.5977" y="137.2451">activity_logs</text><path d="M778.2178,88.25 C778.2178,78.25 796.2178,78.25 796.2178,78.25 C796.2178,78.25 814.2178,78.25 814.2178,88.25 L814.2178,114.25 C814.2178,124.25 796.2178,124.25 796.2178,124.25 C796.2178,124.25 778.2178,124.25 778.2178,114.25 L778.2178,88.25" fill="#FFFFFF" style="stroke:#000000;stroke-width:1;"/><path d="M778.2178,88.25 C778.2178,98.25 796.2178,98.25 796.2178,98.25 C796.2178,98.25 814.2178,98.25 814.2178,88.25" fill="none" style="stroke:#000000;stroke-width:1;"/></g><g class="participant participant-tail" data-entity-uid="part5" data-qualified-name="LogsDB" id="part5-tail"><text fill="#000000" font-family="Verdana" font-size="14" lengthAdjust="spacing" text-decoration="underline" textLength="87.2402" x="749.5977" y="1365.667">activity_logs</text><path d="M778.2178,1378.9688 C778.2178,1368.9688 796.2178,1368.9688 796.2178,1368.9688 C796.2178,1368.9688 814.2178,1368.9688 814.2178,1378.9688 L814.2178,1404.9688 C814.2178,1414.9688 796.2178,1414.9688 796.2178,1414.9688 C796.2178,1414.9688 778.2178,1414.9688 778.2178,1404.9688 L778.2178,1378.9688" fill="#FFFFFF" style="stroke:#000000;stroke-width:1;"/><path d="M778.2178,1378.9688 C778.2178,1388.9688 796.2178,1388.9688 796.2178,1388.9688 C796.2178,1388.9688 814.2178,1388.9688 814.2178,1378.9688" fill="none" style="stroke:#000000;stroke-width:1;"/></g><g><title>.u.LoginPage</title><rect fill="#FFFFFF" height="1063.4609" style="stroke:#000000;stroke-width:1;" width="10" x="274.1509" y="214.8125"/></g><g><title>.u.AuthService</title><rect fill="#FFFFFF" height="803.5313" style="stroke:#000000;stroke-width:1;" width="10" x="498.7266" y="374.4766"/></g><g><title>.u.users</title><rect fill="#FFFFFF" height="29.1328" style="stroke:#000000;stroke-width:1;" width="10" x="712.6826" y="418.7422"/></g><g><title>.u.users</title><rect fill="#FFFFFF" height="29.1328" style="stroke:#000000;stroke-width:1;" width="10" x="712.6826" y="973.9453"/></g><g><title>.u.activity_logs</title><rect fill="#FFFFFF" height="29.1328" style="stroke:#000000;stroke-width:1;" width="10" x="791.2178" y="1119.7422"/></g><rect fill="#FFFFFF" height="3" rx="2.5" ry="2.5" style="stroke:#FFFFFF;stroke-width:1;" width="877.8379" x="5" y="171.1133"/><line style="stroke:#000000;stroke-width:0.5;" x1="5" x2="882.8379" y1="171.1133" y2="171.1133"/><line style="stroke:#000000;stroke-width:0.5;" x1="5" x2="882.8379" y1="174.1133" y2="174.1133"/><rect fill="#FFFFFF" height="23.1328" rx="2.5" ry="2.5" style="stroke:#000000;stroke-width:1;" width="230.4805" x="328.6787" y="160.5469"/><text fill="#000000" font-family="Verdana" font-size="13" font-weight="bold" lengthAdjust="spacing" textLength="211.9546" x="334.6787" y="176.6138">Menampilkan Halaman Login</text><g class="message" data-entity-1="part1" data-entity-2="part2" id="msg1"><polygon fill="#000000" points="262.1509,210.8125,272.1509,214.8125,262.1509,218.8125,266.1509,214.8125" style="stroke:#000000;stroke-width:1;"/><line style="stroke:#000000;stroke-width:1;" x1="63.9551" x2="268.1509" y1="214.8125" y2="214.8125"/><text fill="#000000" font-family="Verdana" font-size="13" lengthAdjust="spacing" textLength="12.6509" x="70.9551" y="209.7466">1:</text><text fill="#000000" font-family="Verdana" font-size="13" lengthAdjust="spacing" textLength="4.1323" x="83.606" y="209.7466">&#160;</text><text fill="#000000" font-family="Verdana" font-size="13" lengthAdjust="spacing" textLength="32.6523" x="87.7383" y="209.7466">Buka</text><text fill="#000000" font-family="Verdana" font-size="13" lengthAdjust="spacing" textLength="4.1323" x="120.3906" y="209.7466">&#160;</text><text fill="#000000" font-family="Verdana" font-size="13" lengthAdjust="spacing" textLength="56.6528" x="124.5229" y="209.7466">halaman</text><text fill="#000000" font-family="Verdana" font-size="13" lengthAdjust="spacing" textLength="4.1323" x="181.1758" y="209.7466">&#160;</text><text fill="#000000" font-family="Verdana" font-size="13" lengthAdjust="spacing" textLength="35.2993" x="185.3081" y="209.7466">Login</text></g><g class="message" data-entity-1="part2" data-entity-2="part1" id="msg2"><polygon fill="#000000" points="74.9551,239.9453,64.9551,243.9453,74.9551,247.9453,70.9551,243.9453" style="stroke:#000000;stroke-width:1;"/><line style="stroke:#000000;stroke-width:1;stroke-dasharray:2,2;" x1="68.9551" x2="273.1509" y1="243.9453" y2="243.9453"/><text fill="#000000" font-family="Verdana" font-size="13" lengthAdjust="spacing" textLength="25.0542" x="80.9551" y="238.8794">1.1:</text><text fill="#000000" font-family="Verdana" font-size="13" lengthAdjust="spacing" textLength="4.1323" x="106.0093" y="238.8794">&#160;</text><text fill="#000000" font-family="Verdana" font-size="13" lengthAdjust="spacing" textLength="67.7803" x="110.1416" y="238.8794">Tampilkan</text><text fill="#000000" font-family="Verdana" font-size="13" lengthAdjust="spacing" textLength="4.1323" x="177.9219" y="238.8794">&#160;</text><text fill="#000000" font-family="Verdana" font-size="13" lengthAdjust="spacing" textLength="30.5386" x="182.0542" y="238.8794">form</text><text fill="#000000" font-family="Verdana" font-size="13" lengthAdjust="spacing" textLength="4.1323" x="212.5928" y="238.8794">&#160;</text><text fill="#000000" font-family="Verdana" font-size="13" lengthAdjust="spacing" textLength="31.6685" x="216.7251" y="238.8794">login</text></g><rect fill="#FFFFFF" height="3" rx="2.5" ry="2.5" style="stroke:#FFFFFF;stroke-width:1;" width="877.8379" x="5" y="272.5117"/><line style="stroke:#000000;stroke-width:0.5;" x1="5" x2="882.8379" y1="272.5117" y2="272.5117"/><line style="stroke:#000000;stroke-width:0.5;" x1="5" x2="882.8379" y1="275.5117" y2="275.5117"/><rect fill="#FFFFFF" height="23.1328" rx="2.5" ry="2.5" style="stroke:#000000;stroke-width:1;" width="112.4458" x="387.696" y="261.9453"/><text fill="#000000" font-family="Verdana" font-size="13" font-weight="bold" lengthAdjust="spacing" textLength="93.9199" x="393.696" y="278.0122">Proses Login</text><g class="message" data-entity-1="part1" data-entity-2="part2" id="msg3"><polygon fill="#000000" points="262.1509,312.2109,272.1509,316.2109,262.1509,320.2109,266.1509,316.2109" style="stroke:#000000;stroke-width:1;"/><line style="stroke:#000000;stroke-width:1;" x1="63.9551" x2="268.1509" y1="316.2109" y2="316.2109"/><text fill="#000000" font-family="Verdana" font-size="13" lengthAdjust="spacing" textLength="12.6509" x="70.9551" y="311.145">2:</text><text fill="#000000" font-family="Verdana" font-size="13" lengthAdjust="spacing" textLength="4.1323" x="83.606" y="311.145">&#160;</text><text fill="#000000" font-family="Verdana" font-size="13" lengthAdjust="spacing" textLength="33.6616" x="87.7383" y="311.145">Input</text><text fill="#000000" font-family="Verdana" font-size="13" lengthAdjust="spacing" textLength="4.1323" x="121.3999" y="311.145">&#160;</text><text fill="#000000" font-family="Verdana" font-size="13" lengthAdjust="spacing" textLength="35.8516" x="125.5322" y="311.145">email</text><text fill="#000000" font-family="Verdana" font-size="13" lengthAdjust="spacing" textLength="4.1323" x="161.3838" y="311.145">&#160;</text><text fill="#000000" font-family="Verdana" font-size="13" lengthAdjust="spacing" textLength="10.1372" x="165.5161" y="311.145">&amp;</text><text fill="#000000" font-family="Verdana" font-size="13" lengthAdjust="spacing" textLength="4.1323" x="175.6533" y="311.145">&#160;</text><text fill="#000000" font-family="Verdana" font-size="13" lengthAdjust="spacing" textLength="61.9468" x="179.7856" y="311.145">password</text></g><g class="message" data-entity-1="part1" data-entity-2="part2" id="msg4"><polygon fill="#000000" points="262.1509,341.3438,272.1509,345.3438,262.1509,349.3438,266.1509,345.3438" style="stroke:#000000;stroke-width:1;"/><line style="stroke:#000000;stroke-width:1;" x1="63.9551" x2="268.1509" y1="345.3438" y2="345.3438"/><text fill="#000000" font-family="Verdana" font-size="13" lengthAdjust="spacing" textLength="12.6509" x="70.9551" y="340.2778">3:</text><text fill="#000000" font-family="Verdana" font-size="13" lengthAdjust="spacing" textLength="4.1323" x="83.606" y="340.2778">&#160;</text><text fill="#000000" font-family="Verdana" font-size="13" lengthAdjust="spacing" textLength="23.2769" x="87.7383" y="340.2778">Klik</text><text fill="#000000" font-family="Verdana" font-size="13" lengthAdjust="spacing" textLength="4.1323" x="111.0151" y="340.2778">&#160;</text><text fill="#000000" font-family="Verdana" font-size="13" lengthAdjust="spacing" textLength="45.5317" x="115.1475" y="340.2778">tombol</text><text fill="#000000" font-family="Verdana" font-size="13" lengthAdjust="spacing" textLength="4.1323" x="160.6792" y="340.2778">&#160;</text><text fill="#000000" font-family="Verdana" font-size="13" lengthAdjust="spacing" textLength="47.2583" x="164.8115" y="340.2778">"Login"</text></g><g class="message" data-entity-1="part2" data-entity-2="part3" id="msg5"><polygon fill="#000000" points="486.7266,370.4766,496.7266,374.4766,486.7266,378.4766,490.7266,374.4766" style="stroke:#000000;stroke-width:1;"/><line style="stroke:#000000;stroke-width:1;" x1="284.1509" x2="492.7266" y1="374.4766" y2="374.4766"/><text fill="#000000" font-family="Verdana" font-size="13" lengthAdjust="spacing" textLength="25.0542" x="291.1509" y="369.4106">3.1:</text><text fill="#000000" font-family="Verdana" font-size="13" lengthAdjust="spacing" textLength="4.1323" x="316.2051" y="369.4106">&#160;</text><text fill="#000000" font-family="Verdana" font-size="13" lengthAdjust="spacing" textLength="76.7241" x="320.3374" y="369.4106">login(email,</text><text fill="#000000" font-family="Verdana" font-size="13" lengthAdjust="spacing" textLength="4.1323" x="397.0615" y="369.4106">&#160;</text><text fill="#000000" font-family="Verdana" font-size="13" lengthAdjust="spacing" textLength="67.0186" x="401.1938" y="369.4106">password)</text></g><g class="message" data-entity-1="part3" data-entity-2="part4" id="msg6"><polygon fill="#000000" points="700.6826,414.7422,710.6826,418.7422,700.6826,422.7422,704.6826,418.7422" style="stroke:#000000;stroke-width:1;"/><line style="stroke:#000000;stroke-width:1;" x1="508.7266" x2="706.6826" y1="418.7422" y2="418.7422"/><text fill="#000000" font-family="Verdana" font-size="13" lengthAdjust="spacing" textLength="37.4575" x="515.7266" y="398.5435">3.1.1:</text><text fill="#000000" font-family="Verdana" font-size="13" lengthAdjust="spacing" textLength="4.1323" x="553.1841" y="398.5435">&#160;</text><text fill="#000000" font-family="Verdana" font-size="13" lengthAdjust="spacing" textLength="48.9404" x="557.3164" y="398.5435">SELECT</text><text fill="#000000" font-family="Verdana" font-size="13" lengthAdjust="spacing" textLength="4.1323" x="606.2568" y="398.5435">&#160;</text><text fill="#000000" font-family="Verdana" font-size="13" lengthAdjust="spacing" textLength="6.5" x="610.3892" y="398.5435">*</text><text fill="#000000" font-family="Verdana" font-size="13" lengthAdjust="spacing" textLength="4.1323" x="616.8892" y="398.5435">&#160;</text><text fill="#000000" font-family="Verdana" font-size="13" lengthAdjust="spacing" textLength="37.959" x="621.0215" y="398.5435">FROM</text><text fill="#000000" font-family="Verdana" font-size="13" lengthAdjust="spacing" textLength="4.1323" x="658.9805" y="398.5435">&#160;</text><text fill="#000000" font-family="Verdana" font-size="13" lengthAdjust="spacing" textLength="35.1279" x="663.1128" y="398.5435">users</text><text fill="#000000" font-family="Verdana" font-size="13" lengthAdjust="spacing" textLength="48.0898" x="515.7266" y="413.6763">WHERE</text><text fill="#000000" font-family="Verdana" font-size="13" lengthAdjust="spacing" textLength="4.1323" x="563.8164" y="413.6763">&#160;</text><text fill="#000000" font-family="Verdana" font-size="13" lengthAdjust="spacing" textLength="35.8516" x="567.9487" y="413.6763">email</text><text fill="#000000" font-family="Verdana" font-size="13" lengthAdjust="spacing" textLength="4.1323" x="603.8003" y="413.6763">&#160;</text><text fill="#000000" font-family="Verdana" font-size="13" lengthAdjust="spacing" textLength="10.8926" x="607.9326" y="413.6763">=</text><text fill="#000000" font-family="Verdana" font-size="13" lengthAdjust="spacing" textLength="4.1323" x="618.8252" y="413.6763">&#160;</text><text fill="#000000" font-family="Verdana" font-size="13" lengthAdjust="spacing" textLength="6.8999" x="622.9575" y="413.6763">?</text></g><g class="message" data-entity-1="part4" data-entity-2="part3" id="msg7"><polygon fill="#000000" points="519.7266,443.875,509.7266,447.875,519.7266,451.875,515.7266,447.875" style="stroke:#000000;stroke-width:1;"/><line style="stroke:#000000;stroke-width:1;stroke-dasharray:2,2;" x1="513.7266" x2="716.6826" y1="447.875" y2="447.875"/><text fill="#000000" font-family="Verdana" font-size="13" lengthAdjust="spacing" textLength="49.8608" x="525.7266" y="442.8091">3.1.1.1:</text><text fill="#000000" font-family="Verdana" font-size="13" lengthAdjust="spacing" textLength="4.1323" x="575.5874" y="442.8091">&#160;</text><text fill="#000000" font-family="Verdana" font-size="13" lengthAdjust="spacing" textLength="59.395" x="579.7197" y="442.8091">userData</text></g><path d="M17.5,462.875 L79.4429,462.875 L79.4429,470.0078 L69.4429,480.0078 L15,480.0078 L15,465.375 A2.5,2.5 0 0 1 17.5,462.875" fill="#FFFFFF" style="stroke:#000000;stroke-width:1;"/><rect fill="none" height="808.3984" rx="2.5" ry="2.5" style="stroke:#000000;stroke-width:1;" width="857.8379" x="15" y="462.875"/><text fill="#000000" font-family="Verdana" font-size="13" font-weight="bold" lengthAdjust="spacing" textLength="19.4429" x="30" y="475.9419">alt</text><text fill="#000000" font-family="Verdana" font-size="11" font-weight="bold" lengthAdjust="spacing" textLength="143.9453" x="94.4429" y="475.0854">[User tidak ditemukan]</text><g class="message" data-entity-1="part3" data-entity-2="part2" id="msg8"><polygon fill="#000000" points="295.1509,512.2734,285.1509,516.2734,295.1509,520.2734,291.1509,516.2734" style="stroke:#000000;stroke-width:1;"/><line style="stroke:#000000;stroke-width:1;stroke-dasharray:2,2;" x1="289.1509" x2="497.7266" y1="516.2734" y2="516.2734"/><text fill="#000000" font-family="Verdana" font-size="13" lengthAdjust="spacing" textLength="37.4575" x="301.1509" y="496.0747">3.1.2:</text><text fill="#000000" font-family="Verdana" font-size="13" lengthAdjust="spacing" textLength="4.1323" x="338.6084" y="496.0747">&#160;</text><text fill="#000000" font-family="Verdana" font-size="13" lengthAdjust="spacing" textLength="37.2671" x="342.7407" y="496.0747">throw</text><text fill="#000000" font-family="Verdana" font-size="13" lengthAdjust="spacing" textLength="151.4868" x="301.1509" y="511.2075">UnauthorizedException</text></g><g class="message" data-entity-1="part2" data-entity-2="part1" id="msg9"><polygon fill="#000000" points="74.9551,556.5391,64.9551,560.5391,74.9551,564.5391,70.9551,560.5391" style="stroke:#000000;stroke-width:1;"/><line style="stroke:#000000;stroke-width:1;stroke-dasharray:2,2;" x1="68.9551" x2="273.1509" y1="560.5391" y2="560.5391"/><text fill="#000000" font-family="Verdana" font-size="13" lengthAdjust="spacing" textLength="49.8608" x="80.9551" y="540.3403">3.1.2.1:</text><text fill="#000000" font-family="Verdana" font-size="13" lengthAdjust="spacing" textLength="4.1323" x="130.8159" y="540.3403">&#160;</text><text fill="#000000" font-family="Verdana" font-size="13" lengthAdjust="spacing" textLength="67.7803" x="134.9482" y="540.3403">Tampilkan</text><text fill="#000000" font-family="Verdana" font-size="13" lengthAdjust="spacing" textLength="4.1323" x="202.7285" y="540.3403">&#160;</text><text fill="#000000" font-family="Verdana" font-size="13" lengthAdjust="spacing" textLength="31.9858" x="206.8608" y="540.3403">error</text><text fill="#000000" font-family="Verdana" font-size="13" lengthAdjust="spacing" textLength="42.0469" x="80.9551" y="555.4731">"Email</text><text fill="#000000" font-family="Verdana" font-size="13" lengthAdjust="spacing" textLength="4.1323" x="123.002" y="555.4731">&#160;</text><text fill="#000000" font-family="Verdana" font-size="13" lengthAdjust="spacing" textLength="29.269" x="127.1343" y="555.4731">atau</text><text fill="#000000" font-family="Verdana" font-size="13" lengthAdjust="spacing" textLength="4.1323" x="156.4033" y="555.4731">&#160;</text><text fill="#000000" font-family="Verdana" font-size="13" lengthAdjust="spacing" textLength="61.9468" x="160.5356" y="555.4731">password</text><text fill="#000000" font-family="Verdana" font-size="13" lengthAdjust="spacing" textLength="4.1323" x="222.4824" y="555.4731">&#160;</text><text fill="#000000" font-family="Verdana" font-size="13" lengthAdjust="spacing" textLength="40.5361" x="226.6147" y="555.4731">salah"</text></g><line style="stroke:#000000;stroke-width:1;stroke-dasharray:2,2;" x1="15" x2="872.8379" y1="569.5391" y2="569.5391"/><text fill="#000000" font-family="Verdana" font-size="11" font-weight="bold" lengthAdjust="spacing" textLength="108.4746" x="20" y="579.7495">[User ditemukan]</text><g class="message" data-entity-1="part3" data-entity-2="part3" id="msg10"><line style="stroke:#000000;stroke-width:1;" x1="508.7266" x2="550.7266" y1="634.7422" y2="634.7422"/><line style="stroke:#000000;stroke-width:1;" x1="550.7266" x2="550.7266" y1="634.7422" y2="647.7422"/><line style="stroke:#000000;stroke-width:1;" x1="509.7266" x2="550.7266" y1="647.7422" y2="647.7422"/><polygon fill="#000000" points="519.7266,643.7422,509.7266,647.7422,519.7266,651.7422,515.7266,647.7422" style="stroke:#000000;stroke-width:1;"/><text fill="#000000" font-family="Verdana" font-size="13" lengthAdjust="spacing" textLength="37.4575" x="515.7266" y="599.4106">3.1.3:</text><text fill="#000000" font-family="Verdana" font-size="13" lengthAdjust="spacing" textLength="174.3955" x="515.7266" y="614.5435">bcrypt.compare(password,</text><text fill="#000000" font-family="Verdana" font-size="13" lengthAdjust="spacing" textLength="36.2896" x="515.7266" y="629.6763">hash)</text></g><path d="M27.5,662.7422 L89.4429,662.7422 L89.4429,669.875 L79.4429,679.875 L25,679.875 L25,665.2422 A2.5,2.5 0 0 1 27.5,662.7422" fill="#FFFFFF" style="stroke:#000000;stroke-width:1;"/><rect fill="none" height="601.5313" rx="2.5" ry="2.5" style="stroke:#000000;stroke-width:1;" width="837.8379" x="25" y="662.7422"/><text fill="#000000" font-family="Verdana" font-size="13" font-weight="bold" lengthAdjust="spacing" textLength="19.4429" x="40" y="675.8091">alt</text><text fill="#000000" font-family="Verdana" font-size="11" font-weight="bold" lengthAdjust="spacing" textLength="144.4233" x="104.4429" y="674.9526">[Password tidak cocok]</text><g class="message" data-entity-1="part3" data-entity-2="part2" id="msg11"><polygon fill="#000000" points="295.1509,712.1406,285.1509,716.1406,295.1509,720.1406,291.1509,716.1406" style="stroke:#000000;stroke-width:1;"/><line style="stroke:#000000;stroke-width:1;stroke-dasharray:2,2;" x1="289.1509" x2="497.7266" y1="716.1406" y2="716.1406"/><text fill="#000000" font-family="Verdana" font-size="13" lengthAdjust="spacing" textLength="37.4575" x="301.1509" y="695.9419">3.1.4:</text><text fill="#000000" font-family="Verdana" font-size="13" lengthAdjust="spacing" textLength="4.1323" x="338.6084" y="695.9419">&#160;</text><text fill="#000000" font-family="Verdana" font-size="13" lengthAdjust="spacing" textLength="37.2671" x="342.7407" y="695.9419">throw</text><text fill="#000000" font-family="Verdana" font-size="13" lengthAdjust="spacing" textLength="151.4868" x="301.1509" y="711.0747">UnauthorizedException</text></g><g class="message" data-entity-1="part2" data-entity-2="part1" id="msg12"><polygon fill="#000000" points="74.9551,741.2734,64.9551,745.2734,74.9551,749.2734,70.9551,745.2734" style="stroke:#000000;stroke-width:1;"/><line style="stroke:#000000;stroke-width:1;stroke-dasharray:2,2;" x1="68.9551" x2="273.1509" y1="745.2734" y2="745.2734"/><text fill="#000000" font-family="Verdana" font-size="13" lengthAdjust="spacing" textLength="49.8608" x="80.9551" y="740.2075">3.1.4.1:</text><text fill="#000000" font-family="Verdana" font-size="13" lengthAdjust="spacing" textLength="4.1323" x="130.8159" y="740.2075">&#160;</text><text fill="#000000" font-family="Verdana" font-size="13" lengthAdjust="spacing" textLength="67.7803" x="134.9482" y="740.2075">Tampilkan</text><text fill="#000000" font-family="Verdana" font-size="13" lengthAdjust="spacing" textLength="4.1323" x="202.7285" y="740.2075">&#160;</text><text fill="#000000" font-family="Verdana" font-size="13" lengthAdjust="spacing" textLength="31.9858" x="206.8608" y="740.2075">error</text></g><line style="stroke:#000000;stroke-width:1;stroke-dasharray:2,2;" x1="25" x2="862.8379" y1="754.2734" y2="754.2734"/><text fill="#000000" font-family="Verdana" font-size="11" font-weight="bold" lengthAdjust="spacing" textLength="108.9526" x="30" y="764.4839">[Password cocok]</text><path d="M37.5,775.0781 L99.4429,775.0781 L99.4429,782.2109 L89.4429,792.2109 L35,792.2109 L35,777.5781 A2.5,2.5 0 0 1 37.5,775.0781" fill="#FFFFFF" style="stroke:#000000;stroke-width:1;"/><rect fill="none" height="482.1953" rx="2.5" ry="2.5" style="stroke:#000000;stroke-width:1;" width="817.8379" x="35" y="775.0781"/><text fill="#000000" font-family="Verdana" font-size="13" font-weight="bold" lengthAdjust="spacing" textLength="19.4429" x="50" y="788.145">alt</text><text fill="#000000" font-family="Verdana" font-size="11" font-weight="bold" lengthAdjust="spacing" textLength="109.3984" x="114.4429" y="787.2886">[Akun tidak aktif]</text><g class="message" data-entity-1="part3" data-entity-2="part2" id="msg13"><polygon fill="#000000" points="295.1509,839.6094,285.1509,843.6094,295.1509,847.6094,291.1509,843.6094" style="stroke:#000000;stroke-width:1;"/><line style="stroke:#000000;stroke-width:1;stroke-dasharray:2,2;" x1="289.1509" x2="497.7266" y1="843.6094" y2="843.6094"/><text fill="#000000" font-family="Verdana" font-size="13" lengthAdjust="spacing" textLength="37.4575" x="301.1509" y="808.2778">3.1.5:</text><text fill="#000000" font-family="Verdana" font-size="13" lengthAdjust="spacing" textLength="4.1323" x="338.6084" y="808.2778">&#160;</text><text fill="#000000" font-family="Verdana" font-size="13" lengthAdjust="spacing" textLength="37.2671" x="342.7407" y="808.2778">throw</text><text fill="#000000" font-family="Verdana" font-size="13" lengthAdjust="spacing" textLength="151.4868" x="301.1509" y="823.4106">UnauthorizedException</text><text fill="#000000" font-family="Verdana" font-size="13" lengthAdjust="spacing" textLength="38.8794" x="301.1509" y="838.5435">"Akun</text><text fill="#000000" font-family="Verdana" font-size="13" lengthAdjust="spacing" textLength="4.1323" x="340.0303" y="838.5435">&#160;</text><text fill="#000000" font-family="Verdana" font-size="13" lengthAdjust="spacing" textLength="32.4556" x="344.1626" y="838.5435">tidak</text><text fill="#000000" font-family="Verdana" font-size="13" lengthAdjust="spacing" textLength="4.1323" x="376.6182" y="838.5435">&#160;</text><text fill="#000000" font-family="Verdana" font-size="13" lengthAdjust="spacing" textLength="34.7598" x="380.7505" y="838.5435">aktif"</text></g><g class="message" data-entity-1="part2" data-entity-2="part1" id="msg14"><polygon fill="#000000" points="74.9551,868.7422,64.9551,872.7422,74.9551,876.7422,70.9551,872.7422" style="stroke:#000000;stroke-width:1;"/><line style="stroke:#000000;stroke-width:1;stroke-dasharray:2,2;" x1="68.9551" x2="273.1509" y1="872.7422" y2="872.7422"/><text fill="#000000" font-family="Verdana" font-size="13" lengthAdjust="spacing" textLength="49.8608" x="80.9551" y="867.6763">3.1.5.1:</text><text fill="#000000" font-family="Verdana" font-size="13" lengthAdjust="spacing" textLength="4.1323" x="130.8159" y="867.6763">&#160;</text><text fill="#000000" font-family="Verdana" font-size="13" lengthAdjust="spacing" textLength="67.7803" x="134.9482" y="867.6763">Tampilkan</text><text fill="#000000" font-family="Verdana" font-size="13" lengthAdjust="spacing" textLength="4.1323" x="202.7285" y="867.6763">&#160;</text><text fill="#000000" font-family="Verdana" font-size="13" lengthAdjust="spacing" textLength="31.9858" x="206.8608" y="867.6763">error</text></g><line style="stroke:#000000;stroke-width:1;stroke-dasharray:2,2;" x1="35" x2="852.8379" y1="881.7422" y2="881.7422"/><text fill="#000000" font-family="Verdana" font-size="11" font-weight="bold" lengthAdjust="spacing" textLength="73.9277" x="40" y="891.9526">[Akun aktif]</text><g class="message" data-entity-1="part3" data-entity-2="part3" id="msg15"><line style="stroke:#000000;stroke-width:1;" x1="508.7266" x2="550.7266" y1="916.6797" y2="916.6797"/><line style="stroke:#000000;stroke-width:1;" x1="550.7266" x2="550.7266" y1="916.6797" y2="929.6797"/><line style="stroke:#000000;stroke-width:1;" x1="509.7266" x2="550.7266" y1="929.6797" y2="929.6797"/><polygon fill="#000000" points="519.7266,925.6797,509.7266,929.6797,519.7266,933.6797,515.7266,929.6797" style="stroke:#000000;stroke-width:1;"/><text fill="#000000" font-family="Verdana" font-size="13" lengthAdjust="spacing" textLength="37.4575" x="515.7266" y="911.6138">3.1.6:</text><text fill="#000000" font-family="Verdana" font-size="13" lengthAdjust="spacing" textLength="4.1323" x="553.1841" y="911.6138">&#160;</text><text fill="#000000" font-family="Verdana" font-size="13" lengthAdjust="spacing" textLength="130.7236" x="557.3164" y="911.6138">generateSessionId()</text></g><g class="message" data-entity-1="part3" data-entity-2="part4" id="msg16"><polygon fill="#000000" points="700.6826,969.9453,710.6826,973.9453,700.6826,977.9453,704.6826,973.9453" style="stroke:#000000;stroke-width:1;"/><line style="stroke:#000000;stroke-width:1;" x1="508.7266" x2="706.6826" y1="973.9453" y2="973.9453"/><text fill="#000000" font-family="Verdana" font-size="13" lengthAdjust="spacing" textLength="37.4575" x="515.7266" y="953.7466">3.1.7:</text><text fill="#000000" font-family="Verdana" font-size="13" lengthAdjust="spacing" textLength="4.1323" x="553.1841" y="953.7466">&#160;</text><text fill="#000000" font-family="Verdana" font-size="13" lengthAdjust="spacing" textLength="52.4126" x="557.3164" y="953.7466">UPDATE</text><text fill="#000000" font-family="Verdana" font-size="13" lengthAdjust="spacing" textLength="4.1323" x="609.729" y="953.7466">&#160;</text><text fill="#000000" font-family="Verdana" font-size="13" lengthAdjust="spacing" textLength="35.1279" x="613.8613" y="953.7466">users</text><text fill="#000000" font-family="Verdana" font-size="13" lengthAdjust="spacing" textLength="24.4067" x="515.7266" y="968.8794">SET</text><text fill="#000000" font-family="Verdana" font-size="13" lengthAdjust="spacing" textLength="4.1323" x="540.1333" y="968.8794">&#160;</text><text fill="#000000" font-family="Verdana" font-size="13" lengthAdjust="spacing" textLength="66.4854" x="544.2656" y="968.8794">session_id</text><text fill="#000000" font-family="Verdana" font-size="13" lengthAdjust="spacing" textLength="4.1323" x="610.751" y="968.8794">&#160;</text><text fill="#000000" font-family="Verdana" font-size="13" lengthAdjust="spacing" textLength="10.8926" x="614.8833" y="968.8794">=</text><text fill="#000000" font-family="Verdana" font-size="13" lengthAdjust="spacing" textLength="4.1323" x="625.7759" y="968.8794">&#160;</text><text fill="#000000" font-family="Verdana" font-size="13" lengthAdjust="spacing" textLength="6.8999" x="629.9082" y="968.8794">?</text></g><g class="message" data-entity-1="part4" data-entity-2="part3" id="msg17"><polygon fill="#000000" points="519.7266,999.0781,509.7266,1003.0781,519.7266,1007.0781,515.7266,1003.0781" style="stroke:#000000;stroke-width:1;"/><line style="stroke:#000000;stroke-width:1;stroke-dasharray:2,2;" x1="513.7266" x2="716.6826" y1="1003.0781" y2="1003.0781"/><text fill="#000000" font-family="Verdana" font-size="13" lengthAdjust="spacing" textLength="49.8608" x="525.7266" y="998.0122">3.1.7.1:</text><text fill="#000000" font-family="Verdana" font-size="13" lengthAdjust="spacing" textLength="4.1323" x="575.5874" y="998.0122">&#160;</text><text fill="#000000" font-family="Verdana" font-size="13" lengthAdjust="spacing" textLength="55.3325" x="579.7197" y="998.0122">Updated</text></g><g class="message" data-entity-1="part3" data-entity-2="part3" id="msg18"><line style="stroke:#000000;stroke-width:1;" x1="508.7266" x2="550.7266" y1="1047.3438" y2="1047.3438"/><line style="stroke:#000000;stroke-width:1;" x1="550.7266" x2="550.7266" y1="1047.3438" y2="1060.3438"/><line style="stroke:#000000;stroke-width:1;" x1="509.7266" x2="550.7266" y1="1060.3438" y2="1060.3438"/><polygon fill="#000000" points="519.7266,1056.3438,509.7266,1060.3438,519.7266,1064.3438,515.7266,1060.3438" style="stroke:#000000;stroke-width:1;"/><text fill="#000000" font-family="Verdana" font-size="13" lengthAdjust="spacing" textLength="37.4575" x="515.7266" y="1027.145">3.1.8:</text><text fill="#000000" font-family="Verdana" font-size="13" lengthAdjust="spacing" textLength="179.9561" x="515.7266" y="1042.2778">generateJwtToken(payload)</text></g><g class="message" data-entity-1="part3" data-entity-2="part5" id="msg19"><polygon fill="#000000" points="779.2178,1115.7422,789.2178,1119.7422,779.2178,1123.7422,783.2178,1119.7422" style="stroke:#000000;stroke-width:1;"/><line style="stroke:#000000;stroke-width:1;" x1="508.7266" x2="785.2178" y1="1119.7422" y2="1119.7422"/><text fill="#000000" font-family="Verdana" font-size="13" lengthAdjust="spacing" textLength="37.4575" x="515.7266" y="1084.4106">3.1.9:</text><text fill="#000000" font-family="Verdana" font-size="13" lengthAdjust="spacing" textLength="4.1323" x="553.1841" y="1084.4106">&#160;</text><text fill="#000000" font-family="Verdana" font-size="13" lengthAdjust="spacing" textLength="46.998" x="557.3164" y="1084.4106">INSERT</text><text fill="#000000" font-family="Verdana" font-size="13" lengthAdjust="spacing" textLength="4.1323" x="604.3145" y="1084.4106">&#160;</text><text fill="#000000" font-family="Verdana" font-size="13" lengthAdjust="spacing" textLength="31.7319" x="608.4468" y="1084.4106">INTO</text><text fill="#000000" font-family="Verdana" font-size="13" lengthAdjust="spacing" textLength="81.0088" x="515.7266" y="1099.5435">activity_logs</text><text fill="#000000" font-family="Verdana" font-size="13" lengthAdjust="spacing" textLength="123.7476" x="515.7266" y="1114.6763">(type='user_login')</text></g><g class="message" data-entity-1="part5" data-entity-2="part3" id="msg20"><polygon fill="#000000" points="519.7266,1144.875,509.7266,1148.875,519.7266,1152.875,515.7266,1148.875" style="stroke:#000000;stroke-width:1;"/><line style="stroke:#000000;stroke-width:1;stroke-dasharray:2,2;" x1="513.7266" x2="795.2178" y1="1148.875" y2="1148.875"/><text fill="#000000" font-family="Verdana" font-size="13" lengthAdjust="spacing" textLength="49.8608" x="525.7266" y="1143.8091">3.1.9.1:</text><text fill="#000000" font-family="Verdana" font-size="13" lengthAdjust="spacing" textLength="4.1323" x="575.5874" y="1143.8091">&#160;</text><text fill="#000000" font-family="Verdana" font-size="13" lengthAdjust="spacing" textLength="51.7334" x="579.7197" y="1143.8091">Created</text></g><g class="message" data-entity-1="part3" data-entity-2="part2" id="msg21"><polygon fill="#000000" points="295.1509,1174.0078,285.1509,1178.0078,295.1509,1182.0078,291.1509,1178.0078" style="stroke:#000000;stroke-width:1;"/><line style="stroke:#000000;stroke-width:1;stroke-dasharray:2,2;" x1="289.1509" x2="502.7266" y1="1178.0078" y2="1178.0078"/><text fill="#000000" font-family="Verdana" font-size="13" lengthAdjust="spacing" textLength="25.0542" x="301.1509" y="1172.9419">3.2:</text><text fill="#000000" font-family="Verdana" font-size="13" lengthAdjust="spacing" textLength="4.1323" x="326.2051" y="1172.9419">&#160;</text><text fill="#000000" font-family="Verdana" font-size="13" lengthAdjust="spacing" textLength="99.5249" x="330.3374" y="1172.9419">{access_token,</text><text fill="#000000" font-family="Verdana" font-size="13" lengthAdjust="spacing" textLength="4.1323" x="429.8623" y="1172.9419">&#160;</text><text fill="#000000" font-family="Verdana" font-size="13" lengthAdjust="spacing" textLength="36.626" x="433.9946" y="1172.9419">user}</text></g><g class="message" data-entity-1="part2" data-entity-2="part2" id="msg22"><line style="stroke:#000000;stroke-width:1;" x1="284.1509" x2="326.1509" y1="1207.1406" y2="1207.1406"/><line style="stroke:#000000;stroke-width:1;" x1="326.1509" x2="326.1509" y1="1207.1406" y2="1220.1406"/><line style="stroke:#000000;stroke-width:1;" x1="285.1509" x2="326.1509" y1="1220.1406" y2="1220.1406"/><polygon fill="#000000" points="295.1509,1216.1406,285.1509,1220.1406,295.1509,1224.1406,291.1509,1220.1406" style="stroke:#000000;stroke-width:1;"/><text fill="#000000" font-family="Verdana" font-size="13" lengthAdjust="spacing" textLength="25.0542" x="291.1509" y="1202.0747">3.3:</text><text fill="#000000" font-family="Verdana" font-size="13" lengthAdjust="spacing" textLength="4.1323" x="316.2051" y="1202.0747">&#160;</text><text fill="#000000" font-family="Verdana" font-size="13" lengthAdjust="spacing" textLength="161.3892" x="320.3374" y="1202.0747">saveToken(localStorage)</text></g><g class="message" data-entity-1="part2" data-entity-2="part1" id="msg23"><polygon fill="#000000" points="74.9551,1245.2734,64.9551,1249.2734,74.9551,1253.2734,70.9551,1249.2734" style="stroke:#000000;stroke-width:1;"/><line style="stroke:#000000;stroke-width:1;stroke-dasharray:2,2;" x1="68.9551" x2="273.1509" y1="1249.2734" y2="1249.2734"/><text fill="#000000" font-family="Verdana" font-size="13" lengthAdjust="spacing" textLength="25.0542" x="80.9551" y="1244.2075">3.4:</text><text fill="#000000" font-family="Verdana" font-size="13" lengthAdjust="spacing" textLength="4.1323" x="106.0093" y="1244.2075">&#160;</text><text fill="#000000" font-family="Verdana" font-size="13" lengthAdjust="spacing" textLength="54.4819" x="110.1416" y="1244.2075">Redirect</text><text fill="#000000" font-family="Verdana" font-size="13" lengthAdjust="spacing" textLength="4.1323" x="164.6235" y="1244.2075">&#160;</text><text fill="#000000" font-family="Verdana" font-size="13" lengthAdjust="spacing" textLength="15.5264" x="168.7559" y="1244.2075">ke</text><text fill="#000000" font-family="Verdana" font-size="13" lengthAdjust="spacing" textLength="4.1323" x="184.2822" y="1244.2075">&#160;</text><text fill="#000000" font-family="Verdana" font-size="13" lengthAdjust="spacing" textLength="70.7573" x="188.4146" y="1244.2075">Dashboard</text></g><path d="M508,1285.7734 L508,1335.7734 A2.5,2.5 0 0 0 510.5,1338.2734 L678.5,1338.2734 A2.5,2.5 0 0 0 681,1335.7734 L681,1293.2734 L671,1283.2734 L510.5,1283.2734 A2.5,2.5 0 0 0 508,1285.7734" fill="#FFFFFF" style="stroke:#000000;stroke-width:1;"/><path d="M671,1283.2734 L671,1292.0234 A1.25,1.25 0 0 0 672.25,1293.2734 L681,1293.2734 L671,1283.2734" fill="#FFFFFF" style="stroke:#000000;stroke-width:1;"/><text fill="#000000" font-family="Verdana" font-size="13" font-weight="bold" lengthAdjust="spacing" textLength="152.1025" x="514" y="1300.3403">Single-Session Login</text><text fill="#000000" font-family="Verdana" font-size="13" lengthAdjust="spacing" textLength="136.2524" x="514" y="1315.4731">session_id baru akan</text><text fill="#000000" font-family="Verdana" font-size="13" lengthAdjust="spacing" textLength="149.9316" x="514" y="1330.606">invalidasi session lama</text><!--SRC=[XLLjJ-D64Fw-lsBgIZrIaJkuGgyNaLGvukjn3H3Xe7v1GcjxI5QsTztTDLnQzR_Vx3enTZ4G56nbPvvvvfcN_S6kiK0eSouaCvcG9TUyW9WdsKghIgQdAbSQVlmSkh-MXS6_AvG9JhLM3ykrI3A9ni1XoyJx9qfBr73S-htWtmgovIiquX-4zmS7FRWBhgr8HCcb1O91dGk9Z5bXSuHeDZmu7C7yye-pYnjvuc16XmUJI1YB1KHdvqVpoukJT-xt2MCyiPH2S6rG1y0Dk1SMEt9SRo2OgvMG2sBZ3-SBbYXfjSeXc5Ps7Q6-5qbzDerOoYsFkK48Aa8n3PwPVMgTKKHnB-pcDbUhseQ2E1Cs7iCvIbwK8i-uX2yyvmKzFGSOZnbpO32S40yO0UNugSeuhDjcpADpYuuhcGt9sdkH_LloM3ReTqeNa7iV5tYXbK7pNApt8pYJPMK12ovo-0bARio3qcdNx9SH_9cB3AmgOgUHHmkO9p8XXPo9O-73xdci_GPgyCYTj6HalULEsjIEpZKAv-7f4dw6prUNv-1rlf5_VGclmYstCVp-2BHJVmSpRD6eyHp2Z6h3KdpYnNXkQ_MiI7a6gQ0E8iab0_euWatY14OQsJNrErnBJhsXD3LO6dvBiBH2rIxTWdYdRb6G1aRVo23qgH2jgf473DLv7J3CJSsmXquhEIf5dEXDQTycgg3fmRqTq3vrZ5aFl9F_vx9SxABKcIOgKPa_xClqwFLC-xCzwidMc_ka6WxTw8xUDAlabXhFhBXh3lle7Rz8ZzJzFrhGWNjA-_WvsWrrZzZFh5MJNqUmGbfur6CHxJWYSvRk3JeUFUxT4VWmWkl5RBeCTxqVXKlQYnxjLgI-_TiOJvgwVTWx5XzSjjSbBInCEzOz4_8AzGRpjyVClpxOfSfGKZzkSiNJL_Elj-CMw2Cjeeiel5hIOta9dLrw8_VifiJn6wVChTynRmRzOcmtRgViTPYE51-T5ASQNvAY1-g5xgGbyIzF4ghNhNKgxFio_lSSE2t2Pu7hfRh5fN4t_1vhPNELy3oYUutkhS6BlKsJV8Mfq9XOo11cj1XYnVLZiYZhT_Tqt_QQf1k6IKKlMgpM5jHTJVSafhjMhd8SRfkylbHEtiKJEcsrQinrHKFZzvUGzpodYJHYPm7kLdCnmSNu3W00]--></g></svg>