<svg xmlns="http://www.w3.org/2000/svg" xmlns:xlink="http://www.w3.org/1999/xlink" contentStyleType="text/css" data-diagram-type="ACTIVITY" height="2208px" preserveAspectRatio="none" style="width:1255px;height:2208px;background:#F0F8FF;" version="1.1" viewBox="0 0 1255 2208" width="1255px" zoomAndPan="magnify"><title>**AD-02: Buat Pesanan**
Sistem SIM4LON</title><defs/><g><rect fill="#F0F8FF" height="2208" style="stroke:none;stroke-width:1;" width="1255" x="0" y="0"/><g class="title" data-source-line="8"><text fill="#000000" font-family="Verdana" font-size="22" font-weight="bold" lengthAdjust="spacing" textLength="262.0986" x="495.1594" y="35.4209">AD-02: Buat Pesanan</text><text fill="#000000" font-family="Verdana" font-size="22" font-weight="bold" lengthAdjust="spacing" textLength="204.8643" x="523.7766" y="61.0303">Sistem SIM4LON</text></g><rect fill="#FFFFFF" height="20.9531" style="stroke:#FFFFFF;stroke-width:1;" width="1232.4175" x="10" y="79.9639"/><ellipse cx="482.917" cy="115.917" fill="#FFFFFF" rx="10" ry="10" style="stroke:#000000;stroke-width:1;"/><rect fill="#87CEEB" height="33.9688" rx="12.5" ry="12.5" style="stroke:#1565C0;stroke-width:1;" width="160.8535" x="402.4902" y="145.917"/><text fill="#000000" font-family="Verdana" font-size="12" lengthAdjust="spacing" textLength="140.8535" x="412.4902" y="167.0557">Buka halaman Pesanan</text><rect fill="#87CEEB" height="33.9688" rx="12.5" ry="12.5" style="stroke:#1565C0;stroke-width:1;" width="170.7793" x="397.5273" y="199.8857"/><text fill="#000000" font-family="Verdana" font-size="12" lengthAdjust="spacing" textLength="150.7793" x="407.5273" y="221.0244">Klik "Buat Pesanan Baru"</text><polygon fill="#87CEEB" points="443.5764,415.7607,522.2576,415.7607,534.2576,427.7607,522.2576,439.7607,443.5764,439.7607,431.5764,427.7607,443.5764,415.7607" style="stroke:#1565C0;stroke-width:1;"/><text fill="#000000" font-family="Verdana" font-size="11" lengthAdjust="spacing" textLength="78.6812" x="443.5764" y="431.5688">Metode input?</text><text fill="#000000" font-family="Verdana" font-size="11" lengthAdjust="spacing" textLength="30.1265" x="401.45" y="425.1665">Voice</text><text fill="#000000" font-family="Verdana" font-size="11" lengthAdjust="spacing" textLength="39.9717" x="534.2576" y="425.1665">Manual</text><rect fill="#90EE90" height="33.9688" rx="12.5" ry="12.5" style="stroke:#1565C0;stroke-width:1;" width="144.5645" x="243.9629" y="459.7607"/><text fill="#000000" font-family="Verdana" font-size="12" lengthAdjust="spacing" textLength="124.5645" x="253.9629" y="480.8994">Klik tombol mikrofon</text><rect fill="#90EE90" height="61.9063" rx="12.5" ry="12.5" style="stroke:#1565C0;stroke-width:1;" width="162.9746" x="92.9238" y="679.6357"/><text fill="#000000" font-family="Verdana" font-size="12" lengthAdjust="spacing" textLength="110.6543" x="102.9238" y="700.7744">Ucapkan perintah:</text><text fill="#000000" font-family="Verdana" font-size="12" lengthAdjust="spacing" textLength="142.9746" x="102.9238" y="714.7432">"Pesan 50 tabung 3 kilo</text><text fill="#000000" font-family="Verdana" font-size="12" lengthAdjust="spacing" textLength="120.5684" x="102.9238" y="728.7119">ke Pangkalan Mitra"</text><polygon fill="#87CEEB" points="127.6611,1034.3232,221.1611,1034.3232,233.1611,1046.3232,221.1611,1058.3232,127.6611,1058.3232,115.6611,1046.3232,127.6611,1034.3232" style="stroke:#1565C0;stroke-width:1;"/><text fill="#000000" font-family="Verdana" font-size="11" lengthAdjust="spacing" textLength="93.5" x="127.6611" y="1050.1313">Konfirmasi hasil?</text><text fill="#000000" font-family="Verdana" font-size="11" lengthAdjust="spacing" textLength="13.2505" x="102.4106" y="1043.729">ya</text><text fill="#000000" font-family="Verdana" font-size="11" lengthAdjust="spacing" textLength="27.4624" x="233.1611" y="1043.729">tidak</text><rect fill="#90EE90" height="33.9688" rx="12.5" ry="12.5" style="stroke:#1565C0;stroke-width:1;" width="141.1602" x="16" y="1068.3232"/><text fill="#000000" font-family="Verdana" font-size="12" lengthAdjust="spacing" textLength="121.1602" x="26" y="1089.4619">Form terisi otomatis</text><rect fill="#87CEEB" height="33.9688" rx="12.5" ry="12.5" style="stroke:#1565C0;stroke-width:1;" width="170.1641" x="177.1602" y="1068.3232"/><text fill="#000000" font-family="Verdana" font-size="12" lengthAdjust="spacing" textLength="150.1641" x="187.1602" y="1089.4619">Kembali ke input manual</text><rect fill="#87CEEB" height="33.9688" rx="12.5" ry="12.5" style="stroke:#1565C0;stroke-width:1;" width="111.0664" x="206.709" y="1122.292"/><text fill="#000000" font-family="Verdana" font-size="12" lengthAdjust="spacing" textLength="91.0664" x="216.709" y="1143.4307">Pilih Pangkalan</text><rect fill="#87CEEB" height="33.9688" rx="12.5" ry="12.5" style="stroke:#1565C0;stroke-width:1;" width="161.5098" x="181.4873" y="1176.2607"/><text fill="#000000" font-family="Verdana" font-size="12" lengthAdjust="spacing" textLength="141.5098" x="191.4873" y="1197.3994">Pilih jenis LPG &amp; jumlah</text><polygon fill="#87CEEB" points="174.4111,1216.2295,186.4111,1228.2295,174.4111,1240.2295,162.4111,1228.2295,174.4111,1216.2295" style="stroke:#1565C0;stroke-width:1;"/><rect fill="#87CEEB" height="47.9375" rx="12.5" ry="12.5" style="stroke:#1565C0;stroke-width:1;" width="155.9316" x="380.1133" y="611.6982"/><text fill="#000000" font-family="Verdana" font-size="12" lengthAdjust="spacing" textLength="135.9316" x="390.1133" y="632.8369">Tampilkan pesan error</text><text fill="#000000" font-family="Verdana" font-size="12" lengthAdjust="spacing" textLength="133.5" x="390.1133" y="646.8057">"Izin mikrofon ditolak"</text><rect fill="#87CEEB" height="33.9688" rx="12.5" ry="12.5" style="stroke:#1565C0;stroke-width:1;" width="111.0664" x="402.5459" y="679.6357"/><text fill="#000000" font-family="Verdana" font-size="12" lengthAdjust="spacing" textLength="91.0664" x="412.5459" y="700.7744">Pilih Pangkalan</text><rect fill="#87CEEB" height="33.9688" rx="12.5" ry="12.5" style="stroke:#1565C0;stroke-width:1;" width="161.5098" x="377.3242" y="748.6045"/><text fill="#000000" font-family="Verdana" font-size="12" lengthAdjust="spacing" textLength="141.5098" x="387.3242" y="769.7432">Pilih jenis LPG &amp; jumlah</text><rect fill="#87CEEB" height="33.9688" rx="12.5" ry="12.5" style="stroke:#1565C0;stroke-width:1;" width="111.0664" x="594.0557" y="459.7607"/><text fill="#000000" font-family="Verdana" font-size="12" lengthAdjust="spacing" textLength="91.0664" x="604.0557" y="480.8994">Pilih Pangkalan</text><rect fill="#87CEEB" height="33.9688" rx="12.5" ry="12.5" style="stroke:#1565C0;stroke-width:1;" width="161.5098" x="568.834" y="513.7295"/><text fill="#000000" font-family="Verdana" font-size="12" lengthAdjust="spacing" textLength="141.5098" x="578.834" y="534.8682">Pilih jenis LPG &amp; jumlah</text><polygon fill="#87CEEB" points="482.917,1284.2295,494.917,1296.2295,482.917,1308.2295,470.917,1296.2295,482.917,1284.2295" style="stroke:#1565C0;stroke-width:1;"/><rect fill="#87CEEB" height="33.9688" rx="12.5" ry="12.5" style="stroke:#1565C0;stroke-width:1;" width="203.7031" x="381.0654" y="1328.2295"/><text fill="#000000" font-family="Verdana" font-size="12" lengthAdjust="spacing" textLength="183.7031" x="391.0654" y="1349.3682">Tambahkan catatan (opsional)</text><rect fill="#87CEEB" height="33.9688" rx="12.5" ry="12.5" style="stroke:#1565C0;stroke-width:1;" width="101.5566" x="432.1387" y="1382.1982"/><text fill="#000000" font-family="Verdana" font-size="12" lengthAdjust="spacing" textLength="81.5566" x="442.1387" y="1403.3369">Klik "Simpan"</text><rect fill="#87CEEB" height="33.9688" rx="12.5" ry="12.5" style="stroke:#1565C0;stroke-width:1;" width="167.0996" x="290.8848" y="1981.7607"/><text fill="#000000" font-family="Verdana" font-size="12" lengthAdjust="spacing" textLength="147.0996" x="300.8848" y="2002.8994">Tampilkan pesan sukses</text><rect fill="#87CEEB" height="33.9688" rx="12.5" ry="12.5" style="stroke:#1565C0;stroke-width:1;" width="180.9629" x="283.9531" y="2035.7295"/><text fill="#000000" font-family="Verdana" font-size="12" lengthAdjust="spacing" textLength="160.9629" x="293.9531" y="2056.8682">Redirect ke detail pesanan</text><ellipse cx="374.4346" cy="2100.6982" fill="none" rx="11" ry="11" style="stroke:#000000;stroke-width:1;"/><ellipse cx="374.4346" cy="2100.6982" fill="#FFFFFF" rx="6" ry="6" style="stroke:#000000;stroke-width:1;"/><rect fill="#87CEEB" height="33.9688" rx="12.5" ry="12.5" style="stroke:#1565C0;stroke-width:1;" width="155.9316" x="513.4336" y="1534.1357"/><text fill="#000000" font-family="Verdana" font-size="12" lengthAdjust="spacing" textLength="135.9316" x="523.4336" y="1555.2744">Tampilkan pesan error</text><ellipse cx="591.3994" cy="1613.0732" fill="none" rx="11" ry="11" style="stroke:#000000;stroke-width:1;"/><ellipse cx="591.3994" cy="1613.0732" fill="#FFFFFF" rx="6" ry="6" style="stroke:#000000;stroke-width:1;"/><line style="stroke:#000000;stroke-width:1;" x1="10" x2="10" y1="79.9639" y2="2127.6982"/><rect fill="#87CEEB" height="33.9688" rx="12.5" ry="12.5" style="stroke:#1565C0;stroke-width:1;" width="169.5547" x="1058.9775" y="253.8545"/><text fill="#000000" font-family="Verdana" font-size="12" lengthAdjust="spacing" textLength="149.5547" x="1068.9775" y="274.9932">Tampilkan form pesanan</text><rect fill="#87CEEB" height="33.9688" rx="12.5" ry="12.5" style="stroke:#1565C0;stroke-width:1;" width="185.6035" x="1050.9531" y="307.8232"/><text fill="#000000" font-family="Verdana" font-size="12" lengthAdjust="spacing" textLength="165.6035" x="1060.9531" y="328.9619">Load daftar Pangkalan aktif</text><rect fill="#87CEEB" height="33.9688" rx="12.5" ry="12.5" style="stroke:#1565C0;stroke-width:1;" width="161.5332" x="1062.9883" y="361.792"/><text fill="#000000" font-family="Verdana" font-size="12" lengthAdjust="spacing" textLength="141.5332" x="1072.9883" y="382.9307">Load daftar Produk LPG</text><rect fill="#90EE90" height="33.9688" rx="12.5" ry="12.5" style="stroke:#1565C0;stroke-width:1;" width="150.9043" x="901.6309" y="513.7295"/><text fill="#000000" font-family="Verdana" font-size="12" lengthAdjust="spacing" textLength="130.9043" x="911.6309" y="534.8682">Request izin mikrofon</text><polygon fill="#87CEEB" points="937.1677,567.6982,1016.9983,567.6982,1028.9983,579.6982,1016.9983,591.6982,937.1677,591.6982,925.1677,579.6982,937.1677,567.6982" style="stroke:#1565C0;stroke-width:1;"/><text fill="#000000" font-family="Verdana" font-size="11" lengthAdjust="spacing" textLength="79.8306" x="937.1677" y="583.5063">Izin diberikan?</text><text fill="#000000" font-family="Verdana" font-size="11" lengthAdjust="spacing" textLength="13.2505" x="911.9172" y="577.104">ya</text><text fill="#000000" font-family="Verdana" font-size="11" lengthAdjust="spacing" textLength="27.4624" x="1028.9983" y="577.104">tidak</text><rect fill="#90EE90" height="47.9375" rx="12.5" ry="12.5" style="stroke:#1565C0;stroke-width:1;" width="146.8906" x="761.8037" y="611.6982"/><text fill="#000000" font-family="Verdana" font-size="12" lengthAdjust="spacing" textLength="126.8906" x="771.8037" y="632.8369">Mulai mendengarkan</text><text fill="#000000" font-family="Verdana" font-size="12" lengthAdjust="spacing" textLength="107.0449" x="771.8037" y="646.8057">(Web Speech API)</text><rect fill="#90EE90" height="33.9688" rx="12.5" ry="12.5" style="stroke:#1565C0;stroke-width:1;" width="158.7031" x="755.8975" y="776.542"/><text fill="#000000" font-family="Verdana" font-size="12" lengthAdjust="spacing" textLength="138.7031" x="765.8975" y="797.6807">Convert speech-to-text</text><rect fill="#90EE90" height="75.875" rx="12.5" ry="12.5" style="stroke:#1565C0;stroke-width:1;" width="172.0625" x="749.2178" y="830.5107"/><text fill="#000000" font-family="Verdana" font-size="12" lengthAdjust="spacing" textLength="152.0625" x="759.2178" y="851.6494">Parse intent dengan NLP:</text><text fill="#000000" font-family="Verdana" font-size="12" lengthAdjust="spacing" textLength="79.8867" x="759.2178" y="865.6182">- Produk: 3kg</text><text fill="#000000" font-family="Verdana" font-size="12" lengthAdjust="spacing" textLength="52.5234" x="759.2178" y="879.5869">- Qty: 50</text><text fill="#000000" font-family="Verdana" font-size="12" lengthAdjust="spacing" textLength="120.1289" x="759.2178" y="893.5557">- Pangkalan: "Mitra"</text><rect fill="#90EE90" height="33.9688" rx="12.5" ry="12.5" style="stroke:#1565C0;stroke-width:1;" width="153.4063" x="758.5459" y="926.3857"/><text fill="#000000" font-family="Verdana" font-size="12" lengthAdjust="spacing" textLength="133.4063" x="768.5459" y="947.5244">Auto-fill form pesanan</text><rect fill="#90EE90" height="33.9688" rx="12.5" ry="12.5" style="stroke:#1565C0;stroke-width:1;" width="189.8105" x="740.3438" y="980.3545"/><text fill="#000000" font-family="Verdana" font-size="12" lengthAdjust="spacing" textLength="169.8105" x="750.3438" y="1001.4932">Tampilkan dialog konfirmasi</text><polygon fill="#87CEEB" points="977.083,1250.2295,989.083,1262.2295,977.083,1274.2295,965.083,1262.2295,977.083,1250.2295" style="stroke:#1565C0;stroke-width:1;"/><rect fill="#87CEEB" height="33.9688" rx="12.5" ry="12.5" style="stroke:#1565C0;stroke-width:1;" width="101.4688" x="1093.0205" y="1436.167"/><text fill="#000000" font-family="Verdana" font-size="12" lengthAdjust="spacing" textLength="81.4688" x="1103.0205" y="1457.3057">Validasi input</text><polygon fill="#87CEEB" points="1111.6733,1490.1357,1175.8364,1490.1357,1187.8364,1502.1357,1175.8364,1514.1357,1111.6733,1514.1357,1099.6733,1502.1357,1111.6733,1490.1357" style="stroke:#1565C0;stroke-width:1;"/><text fill="#000000" font-family="Verdana" font-size="11" lengthAdjust="spacing" textLength="64.1631" x="1111.6733" y="1505.9438">Input valid?</text><text fill="#000000" font-family="Verdana" font-size="11" lengthAdjust="spacing" textLength="13.2505" x="1086.4229" y="1499.5415">ya</text><text fill="#000000" font-family="Verdana" font-size="11" lengthAdjust="spacing" textLength="27.4624" x="1187.8364" y="1499.5415">tidak</text><rect fill="#87CEEB" height="47.9375" rx="12.5" ry="12.5" style="stroke:#1565C0;stroke-width:1;" width="164.1348" x="953.2051" y="1534.1357"/><text fill="#000000" font-family="Verdana" font-size="12" lengthAdjust="spacing" textLength="144.1348" x="963.2051" y="1555.2744">Generate kode pesanan</text><text fill="#000000" font-family="Verdana" font-size="12" lengthAdjust="spacing" textLength="73.5996" x="963.2051" y="1569.2432">(ORD-XXXX)</text><rect fill="#87CEEB" height="33.9688" rx="12.5" ry="12.5" style="stroke:#1565C0;stroke-width:1;" width="167.293" x="951.626" y="1616.042"/><text fill="#000000" font-family="Verdana" font-size="12" lengthAdjust="spacing" textLength="147.293" x="961.626" y="1637.1807">Hitung subtotal per item</text><rect fill="#87CEEB" height="33.9688" rx="12.5" ry="12.5" style="stroke:#1565C0;stroke-width:1;" width="237.998" x="916.2734" y="1670.0107"/><text fill="#000000" font-family="Verdana" font-size="12" lengthAdjust="spacing" textLength="217.998" x="926.2734" y="1691.1494">Hitung PPN (12% untuk non-subsidi)</text><rect fill="#87CEEB" height="33.9688" rx="12.5" ry="12.5" style="stroke:#1565C0;stroke-width:1;" width="141.2598" x="964.6426" y="1723.9795"/><text fill="#000000" font-family="Verdana" font-size="12" lengthAdjust="spacing" textLength="121.2598" x="974.6426" y="1745.1182">Hitung total amount</text><rect fill="#87CEEB" height="47.9375" rx="12.5" ry="12.5" style="stroke:#1565C0;stroke-width:1;" width="149.7031" x="960.4209" y="1777.9482"/><text fill="#000000" font-family="Verdana" font-size="12" lengthAdjust="spacing" textLength="100.2012" x="970.4209" y="1799.0869">Simpan pesanan</text><text fill="#000000" font-family="Verdana" font-size="12" lengthAdjust="spacing" textLength="129.7031" x="970.4209" y="1813.0557">dengan status DRAFT</text><rect fill="#87CEEB" height="47.9375" rx="12.5" ry="12.5" style="stroke:#1565C0;stroke-width:1;" width="134.832" x="967.8564" y="1845.8857"/><text fill="#000000" font-family="Verdana" font-size="12" lengthAdjust="spacing" textLength="114.832" x="977.8564" y="1867.0244">Buat timeline track</text><text fill="#000000" font-family="Verdana" font-size="12" lengthAdjust="spacing" textLength="105.498" x="977.8564" y="1880.9932">"Pesanan Dibuat"</text><rect fill="#87CEEB" height="47.9375" rx="12.5" ry="12.5" style="stroke:#1565C0;stroke-width:1;" width="115.2207" x="977.6621" y="1913.8232"/><text fill="#000000" font-family="Verdana" font-size="12" lengthAdjust="spacing" textLength="76.5469" x="987.6621" y="1934.9619">Log aktivitas</text><text fill="#000000" font-family="Verdana" font-size="12" lengthAdjust="spacing" textLength="95.2207" x="987.6621" y="1948.9307">"order_created"</text><line style="stroke:#000000;stroke-width:1;" x1="734.3438" x2="734.3438" y1="79.9639" y2="2127.6982"/><line style="stroke:#000000;stroke-width:1;" x1="1240.5566" x2="1240.5566" y1="79.9639" y2="2127.6982"/><line style="stroke:#000000;stroke-width:1;" x1="482.917" x2="482.917" y1="125.917" y2="145.917"/><polygon fill="#000000" points="478.917,135.917,482.917,145.917,486.917,135.917,482.917,139.917" style="stroke:#000000;stroke-width:1;"/><line style="stroke:#000000;stroke-width:1;" x1="482.917" x2="482.917" y1="179.8857" y2="199.8857"/><polygon fill="#000000" points="478.917,189.8857,482.917,199.8857,486.917,189.8857,482.917,193.8857" style="stroke:#000000;stroke-width:1;"/><line style="stroke:#000000;stroke-width:1;" x1="262.2422" x2="262.2422" y1="1102.292" y2="1122.292"/><polygon fill="#000000" points="258.2422,1112.292,262.2422,1122.292,266.2422,1112.292,262.2422,1116.292" style="stroke:#000000;stroke-width:1;"/><line style="stroke:#000000;stroke-width:1;" x1="262.2422" x2="262.2422" y1="1156.2607" y2="1176.2607"/><polygon fill="#000000" points="258.2422,1166.2607,262.2422,1176.2607,266.2422,1166.2607,262.2422,1170.2607" style="stroke:#000000;stroke-width:1;"/><line style="stroke:#000000;stroke-width:1;" x1="115.6611" x2="86.5801" y1="1046.3232" y2="1046.3232"/><line style="stroke:#000000;stroke-width:1;" x1="86.5801" x2="86.5801" y1="1046.3232" y2="1068.3232"/><polygon fill="#000000" points="82.5801,1058.3232,86.5801,1068.3232,90.5801,1058.3232,86.5801,1062.3232" style="stroke:#000000;stroke-width:1;"/><line style="stroke:#000000;stroke-width:1;" x1="233.1611" x2="262.2422" y1="1046.3232" y2="1046.3232"/><line style="stroke:#000000;stroke-width:1;" x1="262.2422" x2="262.2422" y1="1046.3232" y2="1068.3232"/><polygon fill="#000000" points="258.2422,1058.3232,262.2422,1068.3232,266.2422,1058.3232,262.2422,1062.3232" style="stroke:#000000;stroke-width:1;"/><line style="stroke:#000000;stroke-width:1;" x1="86.5801" x2="86.5801" y1="1102.292" y2="1228.2295"/><line style="stroke:#000000;stroke-width:1;" x1="86.5801" x2="162.4111" y1="1228.2295" y2="1228.2295"/><polygon fill="#000000" points="152.4111,1224.2295,162.4111,1228.2295,152.4111,1232.2295,156.4111,1228.2295" style="stroke:#000000;stroke-width:1;"/><line style="stroke:#000000;stroke-width:1;" x1="262.2422" x2="262.2422" y1="1210.2295" y2="1228.2295"/><line style="stroke:#000000;stroke-width:1;" x1="262.2422" x2="186.4111" y1="1228.2295" y2="1228.2295"/><polygon fill="#000000" points="196.4111,1224.2295,186.4111,1228.2295,196.4111,1232.2295,192.4111,1228.2295" style="stroke:#000000;stroke-width:1;"/><line style="stroke:#000000;stroke-width:1;" x1="458.0791" x2="458.0791" y1="659.6357" y2="679.6357"/><polygon fill="#000000" points="454.0791,669.6357,458.0791,679.6357,462.0791,669.6357,458.0791,673.6357" style="stroke:#000000;stroke-width:1;"/><line style="stroke:#000000;stroke-width:1;" x1="458.0791" x2="458.0791" y1="713.6045" y2="748.6045"/><polygon fill="#000000" points="454.0791,738.6045,458.0791,748.6045,462.0791,738.6045,458.0791,742.6045" style="stroke:#000000;stroke-width:1;"/><line style="stroke:#000000;stroke-width:1;" x1="649.5889" x2="649.5889" y1="493.7295" y2="513.7295"/><polygon fill="#000000" points="645.5889,503.7295,649.5889,513.7295,653.5889,503.7295,649.5889,507.7295" style="stroke:#000000;stroke-width:1;"/><line style="stroke:#000000;stroke-width:1;" x1="431.5764" x2="316.2451" y1="427.7607" y2="427.7607"/><line style="stroke:#000000;stroke-width:1;" x1="316.2451" x2="316.2451" y1="427.7607" y2="459.7607"/><polygon fill="#000000" points="312.2451,449.7607,316.2451,459.7607,320.2451,449.7607,316.2451,453.7607" style="stroke:#000000;stroke-width:1;"/><line style="stroke:#000000;stroke-width:1;" x1="534.2576" x2="649.5889" y1="427.7607" y2="427.7607"/><line style="stroke:#000000;stroke-width:1;" x1="649.5889" x2="649.5889" y1="427.7607" y2="459.7607"/><polygon fill="#000000" points="645.5889,449.7607,649.5889,459.7607,653.5889,449.7607,649.5889,453.7607" style="stroke:#000000;stroke-width:1;"/><line style="stroke:#000000;stroke-width:1;" x1="649.5889" x2="649.5889" y1="547.6982" y2="1296.2295"/><line style="stroke:#000000;stroke-width:1;" x1="649.5889" x2="494.917" y1="1296.2295" y2="1296.2295"/><polygon fill="#000000" points="504.917,1292.2295,494.917,1296.2295,504.917,1300.2295,500.917,1296.2295" style="stroke:#000000;stroke-width:1;"/><line style="stroke:#000000;stroke-width:1;" x1="482.917" x2="482.917" y1="1308.2295" y2="1328.2295"/><polygon fill="#000000" points="478.917,1318.2295,482.917,1328.2295,486.917,1318.2295,482.917,1322.2295" style="stroke:#000000;stroke-width:1;"/><line style="stroke:#000000;stroke-width:1;" x1="482.917" x2="482.917" y1="1362.1982" y2="1382.1982"/><polygon fill="#000000" points="478.917,1372.1982,482.917,1382.1982,486.917,1372.1982,482.917,1376.1982" style="stroke:#000000;stroke-width:1;"/><line style="stroke:#000000;stroke-width:1;" x1="374.4346" x2="374.4346" y1="2015.7295" y2="2035.7295"/><polygon fill="#000000" points="370.4346,2025.7295,374.4346,2035.7295,378.4346,2025.7295,374.4346,2029.7295" style="stroke:#000000;stroke-width:1;"/><line style="stroke:#000000;stroke-width:1;" x1="374.4346" x2="374.4346" y1="2069.6982" y2="2089.6982"/><polygon fill="#000000" points="370.4346,2079.6982,374.4346,2089.6982,378.4346,2079.6982,374.4346,2083.6982" style="stroke:#000000;stroke-width:1;"/><line style="stroke:#000000;stroke-width:1;" x1="591.3994" x2="591.3994" y1="1568.1045" y2="1602.0732"/><polygon fill="#000000" points="587.3994,1592.0732,591.3994,1602.0732,595.3994,1592.0732,591.3994,1596.0732" style="stroke:#000000;stroke-width:1;"/><line style="stroke:#000000;stroke-width:1;" x1="1143.7549" x2="1143.7549" y1="287.8232" y2="307.8232"/><polygon fill="#000000" points="1139.7549,297.8232,1143.7549,307.8232,1147.7549,297.8232,1143.7549,301.8232" style="stroke:#000000;stroke-width:1;"/><line style="stroke:#000000;stroke-width:1;" x1="1143.7549" x2="1143.7549" y1="341.792" y2="361.792"/><polygon fill="#000000" points="1139.7549,351.792,1143.7549,361.792,1147.7549,351.792,1143.7549,355.792" style="stroke:#000000;stroke-width:1;"/><line style="stroke:#000000;stroke-width:1;" x1="835.249" x2="835.249" y1="810.5107" y2="830.5107"/><polygon fill="#000000" points="831.249,820.5107,835.249,830.5107,839.249,820.5107,835.249,824.5107" style="stroke:#000000;stroke-width:1;"/><line style="stroke:#000000;stroke-width:1;" x1="835.249" x2="835.249" y1="906.3857" y2="926.3857"/><polygon fill="#000000" points="831.249,916.3857,835.249,926.3857,839.249,916.3857,835.249,920.3857" style="stroke:#000000;stroke-width:1;"/><line style="stroke:#000000;stroke-width:1;" x1="835.249" x2="835.249" y1="960.3545" y2="980.3545"/><polygon fill="#000000" points="831.249,970.3545,835.249,980.3545,839.249,970.3545,835.249,974.3545" style="stroke:#000000;stroke-width:1;"/><line style="stroke:#000000;stroke-width:1;" x1="925.1677" x2="835.249" y1="579.6982" y2="579.6982"/><line style="stroke:#000000;stroke-width:1;" x1="835.249" x2="835.249" y1="579.6982" y2="611.6982"/><polygon fill="#000000" points="831.249,601.6982,835.249,611.6982,839.249,601.6982,835.249,605.6982" style="stroke:#000000;stroke-width:1;"/><line style="stroke:#000000;stroke-width:1;" x1="977.083" x2="977.083" y1="547.6982" y2="567.6982"/><polygon fill="#000000" points="973.083,557.6982,977.083,567.6982,981.083,557.6982,977.083,561.6982" style="stroke:#000000;stroke-width:1;"/><line style="stroke:#000000;stroke-width:1;" x1="1035.2725" x2="1035.2725" y1="1582.0732" y2="1616.042"/><polygon fill="#000000" points="1031.2725,1606.042,1035.2725,1616.042,1039.2725,1606.042,1035.2725,1610.042" style="stroke:#000000;stroke-width:1;"/><line style="stroke:#000000;stroke-width:1;" x1="1035.2725" x2="1035.2725" y1="1650.0107" y2="1670.0107"/><polygon fill="#000000" points="1031.2725,1660.0107,1035.2725,1670.0107,1039.2725,1660.0107,1035.2725,1664.0107" style="stroke:#000000;stroke-width:1;"/><line style="stroke:#000000;stroke-width:1;" x1="1035.2725" x2="1035.2725" y1="1703.9795" y2="1723.9795"/><polygon fill="#000000" points="1031.2725,1713.9795,1035.2725,1723.9795,1039.2725,1713.9795,1035.2725,1717.9795" style="stroke:#000000;stroke-width:1;"/><line style="stroke:#000000;stroke-width:1;" x1="1035.2725" x2="1035.2725" y1="1757.9482" y2="1777.9482"/><polygon fill="#000000" points="1031.2725,1767.9482,1035.2725,1777.9482,1039.2725,1767.9482,1035.2725,1771.9482" style="stroke:#000000;stroke-width:1;"/><line style="stroke:#000000;stroke-width:1;" x1="1035.2725" x2="1035.2725" y1="1825.8857" y2="1845.8857"/><polygon fill="#000000" points="1031.2725,1835.8857,1035.2725,1845.8857,1039.2725,1835.8857,1035.2725,1839.8857" style="stroke:#000000;stroke-width:1;"/><line style="stroke:#000000;stroke-width:1;" x1="1035.2725" x2="1035.2725" y1="1893.8232" y2="1913.8232"/><polygon fill="#000000" points="1031.2725,1903.8232,1035.2725,1913.8232,1039.2725,1903.8232,1035.2725,1907.8232" style="stroke:#000000;stroke-width:1;"/><line style="stroke:#000000;stroke-width:1;" x1="1099.6733" x2="1035.2725" y1="1502.1357" y2="1502.1357"/><line style="stroke:#000000;stroke-width:1;" x1="1035.2725" x2="1035.2725" y1="1502.1357" y2="1534.1357"/><polygon fill="#000000" points="1031.2725,1524.1357,1035.2725,1534.1357,1039.2725,1524.1357,1035.2725,1528.1357" style="stroke:#000000;stroke-width:1;"/><line style="stroke:#000000;stroke-width:1;" x1="1143.7549" x2="1143.7549" y1="1470.1357" y2="1490.1357"/><polygon fill="#000000" points="1139.7549,1480.1357,1143.7549,1490.1357,1147.7549,1480.1357,1143.7549,1484.1357" style="stroke:#000000;stroke-width:1;"/><line style="stroke:#000000;stroke-width:1;" x1="482.917" x2="482.917" y1="233.8545" y2="238.8545"/><line style="stroke:#000000;stroke-width:1;" x1="482.917" x2="1143.7549" y1="238.8545" y2="238.8545"/><line style="stroke:#000000;stroke-width:1;" x1="1143.7549" x2="1143.7549" y1="238.8545" y2="253.8545"/><polygon fill="#000000" points="1139.7549,243.8545,1143.7549,253.8545,1147.7549,243.8545,1143.7549,247.8545" style="stroke:#000000;stroke-width:1;"/><line style="stroke:#000000;stroke-width:1;" x1="316.2451" x2="316.2451" y1="493.7295" y2="498.7295"/><line style="stroke:#000000;stroke-width:1;" x1="316.2451" x2="977.083" y1="498.7295" y2="498.7295"/><line style="stroke:#000000;stroke-width:1;" x1="977.083" x2="977.083" y1="498.7295" y2="513.7295"/><polygon fill="#000000" points="973.083,503.7295,977.083,513.7295,981.083,503.7295,977.083,507.7295" style="stroke:#000000;stroke-width:1;"/><line style="stroke:#000000;stroke-width:1;" x1="835.249" x2="835.249" y1="659.6357" y2="664.6357"/><line style="stroke:#000000;stroke-width:1;" x1="835.249" x2="174.4111" y1="664.6357" y2="664.6357"/><line style="stroke:#000000;stroke-width:1;" x1="174.4111" x2="174.4111" y1="664.6357" y2="679.6357"/><polygon fill="#000000" points="170.4111,669.6357,174.4111,679.6357,178.4111,669.6357,174.4111,673.6357" style="stroke:#000000;stroke-width:1;"/><line style="stroke:#000000;stroke-width:1;" x1="174.4111" x2="174.4111" y1="741.542" y2="759.042"/><line style="stroke:#000000;stroke-width:1;" x1="174.4111" x2="835.249" y1="759.042" y2="759.042"/><line style="stroke:#000000;stroke-width:1;" x1="835.249" x2="835.249" y1="759.042" y2="776.542"/><polygon fill="#000000" points="831.249,766.542,835.249,776.542,839.249,766.542,835.249,770.542" style="stroke:#000000;stroke-width:1;"/><line style="stroke:#000000;stroke-width:1;" x1="835.249" x2="835.249" y1="1014.3232" y2="1019.3232"/><line style="stroke:#000000;stroke-width:1;" x1="835.249" x2="174.4111" y1="1019.3232" y2="1019.3232"/><line style="stroke:#000000;stroke-width:1;" x1="174.4111" x2="174.4111" y1="1019.3232" y2="1034.3232"/><polygon fill="#000000" points="170.4111,1024.3232,174.4111,1034.3232,178.4111,1024.3232,174.4111,1028.3232" style="stroke:#000000;stroke-width:1;"/><line style="stroke:#000000;stroke-width:1;" x1="1028.9983" x2="1040.9983" y1="579.6982" y2="579.6982"/><line style="stroke:#000000;stroke-width:1;" x1="1040.9983" x2="1040.9983" y1="579.6982" y2="597.6982"/><line style="stroke:#000000;stroke-width:1;" x1="1040.9983" x2="458.0791" y1="597.6982" y2="597.6982"/><line style="stroke:#000000;stroke-width:1;" x1="458.0791" x2="458.0791" y1="597.6982" y2="611.6982"/><polygon fill="#000000" points="454.0791,601.6982,458.0791,611.6982,462.0791,601.6982,458.0791,605.6982" style="stroke:#000000;stroke-width:1;"/><line style="stroke:#000000;stroke-width:1;" x1="174.4111" x2="174.4111" y1="1240.2295" y2="1262.2295"/><line style="stroke:#000000;stroke-width:1;" x1="174.4111" x2="965.083" y1="1262.2295" y2="1262.2295"/><polygon fill="#000000" points="955.083,1258.2295,965.083,1262.2295,955.083,1266.2295,959.083,1262.2295" style="stroke:#000000;stroke-width:1;"/><line style="stroke:#000000;stroke-width:1;" x1="458.0791" x2="458.0791" y1="782.5732" y2="1244.2295"/><line style="stroke:#000000;stroke-width:1;" x1="458.0791" x2="1007.083" y1="1244.2295" y2="1244.2295"/><line style="stroke:#000000;stroke-width:1;" x1="1007.083" x2="1007.083" y1="1244.2295" y2="1262.2295"/><line style="stroke:#000000;stroke-width:1;" x1="1007.083" x2="989.083" y1="1262.2295" y2="1262.2295"/><polygon fill="#000000" points="999.083,1258.2295,989.083,1262.2295,999.083,1266.2295,995.083,1262.2295" style="stroke:#000000;stroke-width:1;"/><line style="stroke:#000000;stroke-width:1;" x1="977.083" x2="977.083" y1="1274.2295" y2="1278.2295"/><line style="stroke:#000000;stroke-width:1;" x1="977.083" x2="452.917" y1="1278.2295" y2="1278.2295"/><line style="stroke:#000000;stroke-width:1;" x1="452.917" x2="452.917" y1="1278.2295" y2="1296.2295"/><line style="stroke:#000000;stroke-width:1;" x1="452.917" x2="470.917" y1="1296.2295" y2="1296.2295"/><polygon fill="#000000" points="460.917,1292.2295,470.917,1296.2295,460.917,1300.2295,464.917,1296.2295" style="stroke:#000000;stroke-width:1;"/><line style="stroke:#000000;stroke-width:1;" x1="1143.7549" x2="1143.7549" y1="395.7607" y2="400.7607"/><line style="stroke:#000000;stroke-width:1;" x1="1143.7549" x2="482.917" y1="400.7607" y2="400.7607"/><line style="stroke:#000000;stroke-width:1;" x1="482.917" x2="482.917" y1="400.7607" y2="415.7607"/><polygon fill="#000000" points="478.917,405.7607,482.917,415.7607,486.917,405.7607,482.917,409.7607" style="stroke:#000000;stroke-width:1;"/><line style="stroke:#000000;stroke-width:1;" x1="482.917" x2="482.917" y1="1416.167" y2="1421.167"/><line style="stroke:#000000;stroke-width:1;" x1="482.917" x2="1143.7549" y1="1421.167" y2="1421.167"/><line style="stroke:#000000;stroke-width:1;" x1="1143.7549" x2="1143.7549" y1="1421.167" y2="1436.167"/><polygon fill="#000000" points="1139.7549,1426.167,1143.7549,1436.167,1147.7549,1426.167,1143.7549,1430.167" style="stroke:#000000;stroke-width:1;"/><line style="stroke:#000000;stroke-width:1;" x1="1035.2725" x2="1035.2725" y1="1961.7607" y2="1966.7607"/><line style="stroke:#000000;stroke-width:1;" x1="1035.2725" x2="374.4346" y1="1966.7607" y2="1966.7607"/><line style="stroke:#000000;stroke-width:1;" x1="374.4346" x2="374.4346" y1="1966.7607" y2="1981.7607"/><polygon fill="#000000" points="370.4346,1971.7607,374.4346,1981.7607,378.4346,1971.7607,374.4346,1975.7607" style="stroke:#000000;stroke-width:1;"/><line style="stroke:#000000;stroke-width:1;" x1="1187.8364" x2="1199.8364" y1="1502.1357" y2="1502.1357"/><line style="stroke:#000000;stroke-width:1;" x1="1199.8364" x2="1199.8364" y1="1502.1357" y2="1520.1357"/><line style="stroke:#000000;stroke-width:1;" x1="1199.8364" x2="591.3994" y1="1520.1357" y2="1520.1357"/><line style="stroke:#000000;stroke-width:1;" x1="591.3994" x2="591.3994" y1="1520.1357" y2="1534.1357"/><polygon fill="#000000" points="587.3994,1524.1357,591.3994,1534.1357,595.3994,1524.1357,591.3994,1528.1357" style="stroke:#000000;stroke-width:1;"/><text fill="#000000" font-family="Verdana" font-size="18" lengthAdjust="spacing" textLength="41.0273" x="351.6582" y="96.6719">User</text><text fill="#000000" font-family="Verdana" font-size="18" lengthAdjust="spacing" textLength="61.4707" x="956.7148" y="96.6719">Sistem</text><g class="legend" data-source-line="86"><rect fill="none" height="62.8906" rx="7.5" ry="7.5" style="stroke:#000000;stroke-width:1;" width="195.3086" x="1047.1089" y="2132.6982"/><text fill="#000000" font-family="Verdana" font-size="14" font-weight="bold" lengthAdjust="spacing" textLength="51.208" x="1056.9829" y="2152.6934">Warna</text><text fill="#000000" font-family="Verdana" font-size="14" font-weight="bold" lengthAdjust="spacing" textLength="92.2852" x="1117.939" y="2152.6934">Keterangan</text><rect fill="#90EE90" height="16.2969" style="stroke:none;stroke-width:1;" width="60.9561" x="1052.1089" y="2155.9951"/><text fill="#000000" font-family="Verdana" font-size="14" lengthAdjust="spacing" textLength="4.4502" x="1052.1089" y="2168.9902">&#160;</text><text fill="#000000" font-family="Verdana" font-size="14" lengthAdjust="spacing" textLength="115.4521" x="1117.5151" y="2168.9902">Flow Voice Input</text><rect fill="#87CEEB" height="16.2969" style="stroke:none;stroke-width:1;" width="60.9561" x="1052.1089" y="2172.292"/><text fill="#000000" font-family="Verdana" font-size="14" lengthAdjust="spacing" textLength="4.4502" x="1052.1089" y="2185.2871">&#160;</text><text fill="#000000" font-family="Verdana" font-size="14" lengthAdjust="spacing" textLength="87.2813" x="1117.5151" y="2185.2871">Flow Manual</text><line style="stroke:#000000;stroke-width:1;" x1="1052.1089" x2="1237.4175" y1="2139.6982" y2="2139.6982"/><line style="stroke:#000000;stroke-width:1;" x1="1052.1089" x2="1237.4175" y1="2155.9951" y2="2155.9951"/><line style="stroke:#000000;stroke-width:1;" x1="1052.1089" x2="1237.4175" y1="2172.292" y2="2172.292"/><line style="stroke:#000000;stroke-width:1;" x1="1052.1089" x2="1237.4175" y1="2188.5889" y2="2188.5889"/><line style="stroke:#000000;stroke-width:1;" x1="1052.1089" x2="1052.1089" y1="2139.6982" y2="2188.5889"/><line style="stroke:#000000;stroke-width:1;" x1="1113.0649" x2="1113.0649" y1="2139.6982" y2="2188.5889"/><line style="stroke:#000000;stroke-width:1;" x1="1237.4175" x2="1237.4175" y1="2139.6982" y2="2188.5889"/></g><!--SRC=[XLNRRjj647tdLqmLj90D273iE0seNY3PiMlOSbGxbpuOA4RaK9fmkSlkBjqwqCTtU954qKn20GA9kPsTEMVs1x-YZ21No3fmAUiSBMQmm2XTMbFe-CmeO-55SfIyIPAMnoJo_CZ-QThrVFFpsTktqpvFOsEoZTVBqzUdqL7BQuxMisUZdoMaa-GuYNjTUp86Ob84XuUJyz7HSGZJ0ZtCoQ56VNZueE_PUShW_chswkRTRH2iFpYowy1vIHg4qo95MA723FKcQXo4rufJ6BHJmHHjCHXBV9rm7OJlCSjPfM9BZCqWtqRV68mXnaHA27QzJ2M_1amz9rshDN6HmityShn5nWaCP-HDJ20DAFpl1o0pqp3yQ3YYWm3agVvUtF1ovIyjaQu1UvCjZ8ACKsiI8qYshblGtRWx-gSWvu6_iEuBBC5SbRQO5sHP3hk5yuGrbcxAMI7SWenqJ7g9La8UzF0JBU0-9ufMC9bV7OotaTkNvlHz6Jz4c9TjpWM1zhWA7_IW6WkS7e77HQ6NS08fA_EWKsgrVCRUug2lMBiVtN9dHZ-IzU0gl2DlHfx-y-DUNw6cA-VaINke3gpXzcOk24VDS4CuIPVbvv_-AHJ0bMM3C8H15sCx-wIGuWahrM5Od- -EZJ6ZCaj8ZKxOPkZu-zqkntozzHT1E5QzW-vMlIXnUPcBH1dX7tfsktAaf3b3pp6c-od2QyeMg1ZIXkGW-YjGZVUzvgnujUjMh_KpQNQbWk0d-5na2bUj-Zhc9FWgaauJMYsiEWrahR72jQksEAIztYXCMoFxEixlODpX2sg0iweBDSB-hD_8M6VRh97oD0jSbQU9qCjF9cbo9rjK2cnNt3rdEUhzlVPH1XENDAWc8wPg2LHJUYnDpuWHNf8cYvw4SxAr6fgAwj_TdO_-agVHU_W7-rAhhbXuur6LWWQMellc-VmMXY-FVuH2UrcEskYHH3YEkPEdJeAPt1sDFCFwF3i8ZIHbs_l2mVdTvE9zurajTyyPATO4ei4etQmL2JZdXTYR6SlANbRhMsurTE9LNKD_HvRapF6WlMTtZ7h69bUaZXfnoDwDsLBaIm74v97LlhgTDtdmZBJVIb-HjHrSiq7HKjx0bf8Lu_fN-8HMO_boJI9ShFfJvbp3Borb_oRV5yhy2zMj0_NuDsxrbRzrgLahLgbKr_iV]--></g></svg>