<svg xmlns="http://www.w3.org/2000/svg" xmlns:xlink="http://www.w3.org/1999/xlink" contentStyleType="text/css" data-diagram-type="ACTIVITY" height="836px" preserveAspectRatio="none" style="width:420px;height:836px;background:#F0F8FF;" version="1.1" viewBox="0 0 420 836" width="420px" zoomAndPan="magnify"><title>**AD-14: Assign Driver**
Sistem SIM4LON</title><defs/><g><rect fill="#F0F8FF" height="836" style="stroke:none;stroke-width:1;" width="420" x="0" y="0"/><g class="title" data-source-line="8"><text fill="#000000" font-family="Verdana" font-size="22" font-weight="bold" lengthAdjust="spacing" textLength="258.0811" x="79.5735" y="35.4209">AD-14: Assign Driver</text><text fill="#000000" font-family="Verdana" font-size="22" font-weight="bold" lengthAdjust="spacing" textLength="204.8643" x="106.1819" y="61.0303">Sistem SIM4LON</text></g><rect fill="#FFFFFF" height="20.9531" style="stroke:#FFFFFF;stroke-width:1;" width="397.228" x="10" y="79.9639"/><ellipse cx="99.5498" cy="115.917" fill="#FFFFFF" rx="10" ry="10" style="stroke:#000000;stroke-width:1;"/><rect fill="#87CEEB" height="33.9688" rx="12.5" ry="12.5" style="stroke:#1565C0;stroke-width:1;" width="142.666" x="28.2168" y="145.917"/><text fill="#000000" font-family="Verdana" font-size="12" lengthAdjust="spacing" textLength="122.666" x="38.2168" y="167.0557">Buka detail pesanan</text><rect fill="#87CEEB" height="33.9688" rx="12.5" ry="12.5" style="stroke:#1565C0;stroke-width:1;" width="136.3496" x="31.375" y="199.8857"/><text fill="#000000" font-family="Verdana" font-size="12" lengthAdjust="spacing" textLength="116.3496" x="41.375" y="221.0244">Klik "Assign Driver"</text><rect fill="#87CEEB" height="33.9688" rx="12.5" ry="12.5" style="stroke:#1565C0;stroke-width:1;" width="151.0156" x="24.042" y="361.792"/><text fill="#000000" font-family="Verdana" font-size="12" lengthAdjust="spacing" textLength="131.0156" x="34.042" y="382.9307">Pilih driver dari daftar</text><rect fill="#87CEEB" height="33.9688" rx="12.5" ry="12.5" style="stroke:#1565C0;stroke-width:1;" width="101.5566" x="48.7715" y="415.7607"/><text fill="#000000" font-family="Verdana" font-size="12" lengthAdjust="spacing" textLength="81.5566" x="58.7715" y="436.8994">Klik "Simpan"</text><rect fill="#87CEEB" height="33.9688" rx="12.5" ry="12.5" style="stroke:#1565C0;stroke-width:1;" width="167.0996" x="16" y="699.5732"/><text fill="#000000" font-family="Verdana" font-size="12" lengthAdjust="spacing" textLength="147.0996" x="26" y="720.7119">Tampilkan pesan sukses</text><rect fill="#87CEEB" height="33.9688" rx="12.5" ry="12.5" style="stroke:#1565C0;stroke-width:1;" width="159.7695" x="19.665" y="753.542"/><text fill="#000000" font-family="Verdana" font-size="12" lengthAdjust="spacing" textLength="139.7695" x="29.665" y="774.6807">Refresh halaman detail</text><ellipse cx="99.5498" cy="818.5107" fill="none" rx="11" ry="11" style="stroke:#000000;stroke-width:1;"/><ellipse cx="99.5498" cy="818.5107" fill="#FFFFFF" rx="6" ry="6" style="stroke:#000000;stroke-width:1;"/><line style="stroke:#000000;stroke-width:1;" x1="10" x2="10" y1="79.9639" y2="829.5107"/><rect fill="#87CEEB" height="33.9688" rx="12.5" ry="12.5" style="stroke:#1565C0;stroke-width:1;" width="158.498" x="217.9844" y="253.8545"/><text fill="#000000" font-family="Verdana" font-size="12" lengthAdjust="spacing" textLength="138.498" x="227.9844" y="274.9932">Load daftar driver aktif</text><rect fill="#87CEEB" height="33.9688" rx="12.5" ry="12.5" style="stroke:#1565C0;stroke-width:1;" width="191.873" x="201.2969" y="307.8232"/><text fill="#000000" font-family="Verdana" font-size="12" lengthAdjust="spacing" textLength="171.873" x="211.2969" y="328.9619">Tampilkan modal pilih driver</text><rect fill="#87CEEB" height="33.9688" rx="12.5" ry="12.5" style="stroke:#1565C0;stroke-width:1;" width="158.6797" x="217.8936" y="469.7295"/><text fill="#000000" font-family="Verdana" font-size="12" lengthAdjust="spacing" textLength="138.6797" x="227.8936" y="490.8682">Validasi driver tersedia</text><rect fill="#87CEEB" height="33.9688" rx="12.5" ry="12.5" style="stroke:#1565C0;stroke-width:1;" width="208.2676" x="193.0996" y="523.6982"/><text fill="#000000" font-family="Verdana" font-size="12" lengthAdjust="spacing" textLength="188.2676" x="203.0996" y="544.8369">Update driver_id pada pesanan</text><rect fill="#87CEEB" height="47.9375" rx="12.5" ry="12.5" style="stroke:#1565C0;stroke-width:1;" width="138.1719" x="228.1475" y="577.667"/><text fill="#000000" font-family="Verdana" font-size="12" lengthAdjust="spacing" textLength="114.832" x="238.1475" y="598.8057">Buat timeline track</text><text fill="#000000" font-family="Verdana" font-size="12" lengthAdjust="spacing" textLength="118.1719" x="238.1475" y="612.7744">"Driver ditugaskan"</text><rect fill="#87CEEB" height="33.9688" rx="12.5" ry="12.5" style="stroke:#1565C0;stroke-width:1;" width="96.5469" x="248.96" y="645.6045"/><text fill="#000000" font-family="Verdana" font-size="12" lengthAdjust="spacing" textLength="76.5469" x="258.96" y="666.7432">Log aktivitas</text><line style="stroke:#000000;stroke-width:1;" x1="187.0996" x2="187.0996" y1="79.9639" y2="829.5107"/><line style="stroke:#000000;stroke-width:1;" x1="405.3672" x2="405.3672" y1="79.9639" y2="829.5107"/><line style="stroke:#000000;stroke-width:1;" x1="99.5498" x2="99.5498" y1="125.917" y2="145.917"/><polygon fill="#000000" points="95.5498,135.917,99.5498,145.917,103.5498,135.917,99.5498,139.917" style="stroke:#000000;stroke-width:1;"/><line style="stroke:#000000;stroke-width:1;" x1="99.5498" x2="99.5498" y1="179.8857" y2="199.8857"/><polygon fill="#000000" points="95.5498,189.8857,99.5498,199.8857,103.5498,189.8857,99.5498,193.8857" style="stroke:#000000;stroke-width:1;"/><line style="stroke:#000000;stroke-width:1;" x1="99.5498" x2="99.5498" y1="395.7607" y2="415.7607"/><polygon fill="#000000" points="95.5498,405.7607,99.5498,415.7607,103.5498,405.7607,99.5498,409.7607" style="stroke:#000000;stroke-width:1;"/><line style="stroke:#000000;stroke-width:1;" x1="99.5498" x2="99.5498" y1="733.542" y2="753.542"/><polygon fill="#000000" points="95.5498,743.542,99.5498,753.542,103.5498,743.542,99.5498,747.542" style="stroke:#000000;stroke-width:1;"/><line style="stroke:#000000;stroke-width:1;" x1="99.5498" x2="99.5498" y1="787.5107" y2="807.5107"/><polygon fill="#000000" points="95.5498,797.5107,99.5498,807.5107,103.5498,797.5107,99.5498,801.5107" style="stroke:#000000;stroke-width:1;"/><line style="stroke:#000000;stroke-width:1;" x1="297.2334" x2="297.2334" y1="287.8232" y2="307.8232"/><polygon fill="#000000" points="293.2334,297.8232,297.2334,307.8232,301.2334,297.8232,297.2334,301.8232" style="stroke:#000000;stroke-width:1;"/><line style="stroke:#000000;stroke-width:1;" x1="297.2334" x2="297.2334" y1="503.6982" y2="523.6982"/><polygon fill="#000000" points="293.2334,513.6982,297.2334,523.6982,301.2334,513.6982,297.2334,517.6982" style="stroke:#000000;stroke-width:1;"/><line style="stroke:#000000;stroke-width:1;" x1="297.2334" x2="297.2334" y1="557.667" y2="577.667"/><polygon fill="#000000" points="293.2334,567.667,297.2334,577.667,301.2334,567.667,297.2334,571.667" style="stroke:#000000;stroke-width:1;"/><line style="stroke:#000000;stroke-width:1;" x1="297.2334" x2="297.2334" y1="625.6045" y2="645.6045"/><polygon fill="#000000" points="293.2334,635.6045,297.2334,645.6045,301.2334,635.6045,297.2334,639.6045" style="stroke:#000000;stroke-width:1;"/><line style="stroke:#000000;stroke-width:1;" x1="99.5498" x2="99.5498" y1="233.8545" y2="238.8545"/><line style="stroke:#000000;stroke-width:1;" x1="99.5498" x2="297.2334" y1="238.8545" y2="238.8545"/><line style="stroke:#000000;stroke-width:1;" x1="297.2334" x2="297.2334" y1="238.8545" y2="253.8545"/><polygon fill="#000000" points="293.2334,243.8545,297.2334,253.8545,301.2334,243.8545,297.2334,247.8545" style="stroke:#000000;stroke-width:1;"/><line style="stroke:#000000;stroke-width:1;" x1="297.2334" x2="297.2334" y1="341.792" y2="346.792"/><line style="stroke:#000000;stroke-width:1;" x1="297.2334" x2="99.5498" y1="346.792" y2="346.792"/><line style="stroke:#000000;stroke-width:1;" x1="99.5498" x2="99.5498" y1="346.792" y2="361.792"/><polygon fill="#000000" points="95.5498,351.792,99.5498,361.792,103.5498,351.792,99.5498,355.792" style="stroke:#000000;stroke-width:1;"/><line style="stroke:#000000;stroke-width:1;" x1="99.5498" x2="99.5498" y1="449.7295" y2="454.7295"/><line style="stroke:#000000;stroke-width:1;" x1="99.5498" x2="297.2334" y1="454.7295" y2="454.7295"/><line style="stroke:#000000;stroke-width:1;" x1="297.2334" x2="297.2334" y1="454.7295" y2="469.7295"/><polygon fill="#000000" points="293.2334,459.7295,297.2334,469.7295,301.2334,459.7295,297.2334,463.7295" style="stroke:#000000;stroke-width:1;"/><line style="stroke:#000000;stroke-width:1;" x1="297.2334" x2="297.2334" y1="679.5732" y2="684.5732"/><line style="stroke:#000000;stroke-width:1;" x1="297.2334" x2="99.5498" y1="684.5732" y2="684.5732"/><line style="stroke:#000000;stroke-width:1;" x1="99.5498" x2="99.5498" y1="684.5732" y2="699.5732"/><polygon fill="#000000" points="95.5498,689.5732,99.5498,699.5732,103.5498,689.5732,99.5498,693.5732" style="stroke:#000000;stroke-width:1;"/><text fill="#000000" font-family="Verdana" font-size="18" lengthAdjust="spacing" textLength="41.0273" x="78.0361" y="96.6719">User</text><text fill="#000000" font-family="Verdana" font-size="18" lengthAdjust="spacing" textLength="61.4707" x="265.498" y="96.6719">Sistem</text><!--SRC=[RP51Jy9048Nl-oj6l96OW8AQzaI1Wn6LY7WYCICxsqwwtJQxMn8JVhoRKh4erxxtljStU-4pAWWgZMo4ozbKQB60JzpcgIrh8wUbBYrSge6wLwhZc6mzxzX_9N-TztVJ-Jmvvooj9DkwXkFRyNRGSItHUlPScdz0kb7NIfwrdY6A86c2VdyokngE8fWunwc1cUKTsNv_OrRiF1MmUdWQBLwUXTYl7TczS3vGHPJKEO8aZwoX8eS6JIoYHyqvz4vGlJX43wozY1ObIf2e0WHaemFcdbN8lc5HiSxHG55A35JMdBMc-5WVBJkV0yboYpkshxYeq9pMlgDcYOv_Sfwi8yaOGkjAegTM-6095KhiJ4fgzE2v8Cs6mDjmzOtfpTf-zdMABc_wmhYqMHCU4Ltdbt-NDLXmTUue6A9NKfPS1XbgB89mk6SSRbnMtm00]--></g></svg>