<svg xmlns="http://www.w3.org/2000/svg" xmlns:xlink="http://www.w3.org/1999/xlink" contentStyleType="text/css" data-diagram-type="ACTIVITY" height="1019px" preserveAspectRatio="none" style="width:1123px;height:1019px;background:#F0F8FF;" version="1.1" viewBox="0 0 1123 1019" width="1123px" zoomAndPan="magnify"><title>**AD-16: Generate Invoice / Nota**
Sistem SIM4LON</title><defs/><g><rect fill="#F0F8FF" height="1019" style="stroke:none;stroke-width:1;" width="1123" x="0" y="0"/><g class="title" data-source-line="8"><text fill="#000000" font-family="Verdana" font-size="22" font-weight="bold" lengthAdjust="spacing" textLength="384.8926" x="367.9348" y="35.4209">AD-16: Generate Invoice / Nota</text><text fill="#000000" font-family="Verdana" font-size="22" font-weight="bold" lengthAdjust="spacing" textLength="204.8643" x="457.949" y="61.0303">Sistem SIM4LON</text></g><rect fill="#FFFFFF" height="20.9531" style="stroke:#FFFFFF;stroke-width:1;" width="1100.7622" x="10" y="79.9639"/><rect fill="#E3F2FD" height="932.4063" style="stroke:#E3F2FD;stroke-width:1;" width="592.3867" x="10" y="79.9639"/><ellipse cx="324.8677" cy="115.917" fill="#FFFFFF" rx="10" ry="10" style="stroke:#000000;stroke-width:1;"/><rect fill="#87CEEB" height="33.9688" rx="12.5" ry="12.5" style="stroke:#1565C0;stroke-width:1;" width="143.9082" x="252.9136" y="145.917"/><text fill="#000000" font-family="Verdana" font-size="12" lengthAdjust="spacing" textLength="123.9082" x="262.9136" y="167.0557">Buka Detail Pesanan</text><rect fill="#87CEEB" height="33.9688" rx="12.5" ry="12.5" style="stroke:#1565C0;stroke-width:1;" width="170.2461" x="239.7446" y="199.8857"/><text fill="#000000" font-family="Verdana" font-size="12" lengthAdjust="spacing" textLength="150.2461" x="249.7446" y="221.0244">Klik "Cetak Invoice/Nota"</text><path d="M386.7061,351.792 L386.7061,452.5889 L597.3867,452.5889 L597.3867,361.792 L587.3867,351.792 L386.7061,351.792" fill="#FFFFFF" style="stroke:#000000;stroke-width:1;"/><path d="M587.3867,351.792 L587.3867,361.792 L597.3867,361.792 L587.3867,351.792" fill="#FFFFFF" style="stroke:#000000;stroke-width:1;"/><text fill="#000000" font-family="Verdana" font-size="13" font-weight="bold" lengthAdjust="spacing" textLength="62.7402" x="392.7061" y="368.8589">Catatan:</text><text fill="#000000" font-family="Verdana" font-size="13" lengthAdjust="spacing" textLength="149.8301" x="392.7061" y="383.9917">Invoice = pre-payment</text><text fill="#000000" font-family="Verdana" font-size="13" lengthAdjust="spacing" textLength="189.6807" x="392.7061" y="399.1245">Nota = post-payment (lunas)</text><text fill="#000000" font-family="Verdana" font-size="13" lengthAdjust="spacing" textLength="4.1323" x="392.7061" y="414.2573">&#160;</text><text fill="#000000" font-family="Verdana" font-size="13" lengthAdjust="spacing" textLength="128.7432" x="392.7061" y="429.3901">Keduanya di-render</text><text fill="#000000" font-family="Verdana" font-size="13" lengthAdjust="spacing" textLength="182.4126" x="392.7061" y="444.5229">on-demand dari data Order.</text><polygon fill="#87CEEB" points="154.5332,604.5264,227.9883,604.5264,239.9883,616.5264,227.9883,628.5264,154.5332,628.5264,142.5332,616.5264,154.5332,604.5264" style="stroke:#1565C0;stroke-width:1;"/><text fill="#000000" font-family="Verdana" font-size="11" lengthAdjust="spacing" textLength="73.4551" x="154.5332" y="620.3345">Sudah lunas?</text><text fill="#000000" font-family="Verdana" font-size="11" lengthAdjust="spacing" textLength="13.2505" x="129.2827" y="613.9321">ya</text><text fill="#000000" font-family="Verdana" font-size="11" lengthAdjust="spacing" textLength="27.4624" x="239.9883" y="613.9321">tidak</text><rect fill="#87CEEB" height="33.9688" rx="12.5" ry="12.5" style="stroke:#1565C0;stroke-width:1;" width="158.627" x="22.9429" y="638.5264"/><text fill="#000000" font-family="Verdana" font-size="12" lengthAdjust="spacing" textLength="138.627" x="32.9429" y="659.665">Pilih: Invoice atau Nota</text><rect fill="#87CEEB" height="33.9688" rx="12.5" ry="12.5" style="stroke:#1565C0;stroke-width:1;" width="157.3906" x="201.5698" y="638.5264"/><text fill="#000000" font-family="Verdana" font-size="12" lengthAdjust="spacing" textLength="137.3906" x="211.5698" y="659.665">Tampilkan Invoice saja</text><polygon fill="#87CEEB" points="191.2607,678.4951,203.2607,690.4951,191.2607,702.4951,179.2607,690.4951,191.2607,678.4951" style="stroke:#1565C0;stroke-width:1;"/><rect fill="#87CEEB" height="33.9688" rx="12.5" ry="12.5" style="stroke:#1565C0;stroke-width:1;" width="109.6895" x="136.416" y="830.4326"/><text fill="#000000" font-family="Verdana" font-size="12" lengthAdjust="spacing" textLength="89.6895" x="146.416" y="851.5713">Lihat dokumen</text><line style="stroke:#000000;stroke-width:1.5;" x1="63.8809" x2="327.1074" y1="884.4014" y2="884.4014"/><rect fill="#87CEEB" height="33.9688" rx="12.5" ry="12.5" style="stroke:#1565C0;stroke-width:1;" width="95.7617" x="16" y="904.4014"/><text fill="#000000" font-family="Verdana" font-size="12" lengthAdjust="spacing" textLength="75.7617" x="26" y="925.54">Cetak (Print)</text><rect fill="#87CEEB" height="33.9688" rx="12.5" ry="12.5" style="stroke:#1565C0;stroke-width:1;" width="119.9316" x="139.7617" y="904.4014"/><text fill="#000000" font-family="Verdana" font-size="12" lengthAdjust="spacing" textLength="99.9316" x="149.7617" y="925.54">Share WhatsApp</text><rect fill="#87CEEB" height="33.9688" rx="12.5" ry="12.5" style="stroke:#1565C0;stroke-width:1;" width="78.8281" x="287.6934" y="904.4014"/><text fill="#000000" font-family="Verdana" font-size="12" lengthAdjust="spacing" textLength="58.8281" x="297.6934" y="925.54">Copy Link</text><line style="stroke:#000000;stroke-width:1.5;" x1="63.8809" x2="327.1074" y1="958.3701" y2="958.3701"/><ellipse cx="191.2607" cy="989.3701" fill="none" rx="11" ry="11" style="stroke:#000000;stroke-width:1;"/><ellipse cx="191.2607" cy="989.3701" fill="#FFFFFF" rx="6" ry="6" style="stroke:#000000;stroke-width:1;"/><rect fill="#87CEEB" height="33.9688" rx="12.5" ry="12.5" style="stroke:#1565C0;stroke-width:1;" width="115.9063" x="400.5215" y="496.5889"/><text fill="#000000" font-family="Verdana" font-size="12" lengthAdjust="spacing" textLength="95.9063" x="410.5215" y="517.7275">Tampilkan error</text><ellipse cx="458.4746" cy="561.5576" fill="none" rx="11" ry="11" style="stroke:#000000;stroke-width:1;"/><ellipse cx="458.4746" cy="561.5576" fill="#FFFFFF" rx="6" ry="6" style="stroke:#000000;stroke-width:1;"/><line style="stroke:#000000;stroke-width:1;" x1="10" x2="10" y1="79.9639" y2="1012.3701"/><rect fill="#E8F5E9" height="932.4063" style="stroke:#E8F5E9;stroke-width:1;" width="506.5146" x="602.3867" y="79.9639"/><rect fill="#87CEEB" height="33.9688" rx="12.5" ry="12.5" style="stroke:#1565C0;stroke-width:1;" width="205.584" x="728.5903" y="253.8545"/><text fill="#000000" font-family="Verdana" font-size="12" lengthAdjust="spacing" textLength="185.584" x="738.5903" y="274.9932">Navigasi ke halaman dokumen</text><rect fill="#87CEEB" height="33.9688" rx="12.5" ry="12.5" style="stroke:#1565C0;stroke-width:1;" width="120.0605" x="771.3521" y="307.8232"/><text fill="#000000" font-family="Verdana" font-size="12" lengthAdjust="spacing" textLength="100.0605" x="781.3521" y="328.9619">Fetch data order</text><path d="M893.2207,351.792 L893.2207,452.5889 L1103.9014,452.5889 L1103.9014,361.792 L1093.9014,351.792 L893.2207,351.792" fill="#FFFFFF" style="stroke:#000000;stroke-width:1;"/><path d="M1093.9014,351.792 L1093.9014,361.792 L1103.9014,361.792 L1093.9014,351.792" fill="#FFFFFF" style="stroke:#000000;stroke-width:1;"/><text fill="#000000" font-family="Verdana" font-size="13" font-weight="bold" lengthAdjust="spacing" textLength="62.7402" x="899.2207" y="368.8589">Catatan:</text><text fill="#000000" font-family="Verdana" font-size="13" lengthAdjust="spacing" textLength="149.8301" x="899.2207" y="383.9917">Invoice = pre-payment</text><text fill="#000000" font-family="Verdana" font-size="13" lengthAdjust="spacing" textLength="189.6807" x="899.2207" y="399.1245">Nota = post-payment (lunas)</text><text fill="#000000" font-family="Verdana" font-size="13" lengthAdjust="spacing" textLength="4.1323" x="899.2207" y="414.2573">&#160;</text><text fill="#000000" font-family="Verdana" font-size="13" lengthAdjust="spacing" textLength="128.7432" x="899.2207" y="429.3901">Keduanya di-render</text><text fill="#000000" font-family="Verdana" font-size="13" lengthAdjust="spacing" textLength="182.4126" x="899.2207" y="444.5229">on-demand dari data Order.</text><polygon fill="#87CEEB" points="781.5439,452.5889,881.2207,452.5889,893.2207,464.5889,881.2207,476.5889,781.5439,476.5889,769.5439,464.5889,781.5439,452.5889" style="stroke:#1565C0;stroke-width:1;"/><text fill="#000000" font-family="Verdana" font-size="11" lengthAdjust="spacing" textLength="99.6768" x="781.5439" y="468.397">Order ditemukan?</text><text fill="#000000" font-family="Verdana" font-size="11" lengthAdjust="spacing" textLength="13.2505" x="756.2935" y="461.9946">ya</text><text fill="#000000" font-family="Verdana" font-size="11" lengthAdjust="spacing" textLength="27.4624" x="893.2207" y="461.9946">tidak</text><rect fill="#87CEEB" height="33.9688" rx="12.5" ry="12.5" style="stroke:#1565C0;stroke-width:1;" width="150.1016" x="622.7246" y="496.5889"/><text fill="#000000" font-family="Verdana" font-size="12" lengthAdjust="spacing" textLength="130.1016" x="632.7246" y="517.7275">Load company profile</text><rect fill="#87CEEB" height="33.9688" rx="12.5" ry="12.5" style="stroke:#1565C0;stroke-width:1;" width="163.2207" x="616.165" y="550.5576"/><text fill="#000000" font-family="Verdana" font-size="12" lengthAdjust="spacing" textLength="143.2207" x="626.165" y="571.6963">Cek status pembayaran</text><rect fill="#87CEEB" height="33.9688" rx="12.5" ry="12.5" style="stroke:#1565C0;stroke-width:1;" width="178.7773" x="608.3867" y="722.4951"/><text fill="#000000" font-family="Verdana" font-size="12" lengthAdjust="spacing" textLength="158.7773" x="618.3867" y="743.6338">Generate nomor dokumen</text><rect fill="#87CEEB" height="33.9688" rx="12.5" ry="12.5" style="stroke:#1565C0;stroke-width:1;" width="123.2656" x="636.1426" y="776.4639"/><text fill="#000000" font-family="Verdana" font-size="12" lengthAdjust="spacing" textLength="103.2656" x="646.1426" y="797.6025">Render dokumen</text><line style="stroke:#000000;stroke-width:1;" x1="602.3867" x2="602.3867" y1="79.9639" y2="1012.3701"/><line style="stroke:#000000;stroke-width:1;" x1="1108.9014" x2="1108.9014" y1="79.9639" y2="1012.3701"/><line style="stroke:#000000;stroke-width:1;" x1="324.8677" x2="324.8677" y1="125.917" y2="145.917"/><polygon fill="#000000" points="320.8677,135.917,324.8677,145.917,328.8677,135.917,324.8677,139.917" style="stroke:#000000;stroke-width:1;"/><line style="stroke:#000000;stroke-width:1;" x1="324.8677" x2="324.8677" y1="179.8857" y2="199.8857"/><polygon fill="#000000" points="320.8677,189.8857,324.8677,199.8857,328.8677,189.8857,324.8677,193.8857" style="stroke:#000000;stroke-width:1;"/><line style="stroke:#000000;stroke-width:1;" x1="142.5332" x2="102.2563" y1="616.5264" y2="616.5264"/><line style="stroke:#000000;stroke-width:1;" x1="102.2563" x2="102.2563" y1="616.5264" y2="638.5264"/><polygon fill="#000000" points="98.2563,628.5264,102.2563,638.5264,106.2563,628.5264,102.2563,632.5264" style="stroke:#000000;stroke-width:1;"/><line style="stroke:#000000;stroke-width:1;" x1="239.9883" x2="280.2651" y1="616.5264" y2="616.5264"/><line style="stroke:#000000;stroke-width:1;" x1="280.2651" x2="280.2651" y1="616.5264" y2="638.5264"/><polygon fill="#000000" points="276.2651,628.5264,280.2651,638.5264,284.2651,628.5264,280.2651,632.5264" style="stroke:#000000;stroke-width:1;"/><line style="stroke:#000000;stroke-width:1;" x1="102.2563" x2="102.2563" y1="672.4951" y2="690.4951"/><line style="stroke:#000000;stroke-width:1;" x1="102.2563" x2="179.2607" y1="690.4951" y2="690.4951"/><polygon fill="#000000" points="169.2607,686.4951,179.2607,690.4951,169.2607,694.4951,173.2607,690.4951" style="stroke:#000000;stroke-width:1;"/><line style="stroke:#000000;stroke-width:1;" x1="280.2651" x2="280.2651" y1="672.4951" y2="690.4951"/><line style="stroke:#000000;stroke-width:1;" x1="280.2651" x2="203.2607" y1="690.4951" y2="690.4951"/><polygon fill="#000000" points="213.2607,686.4951,203.2607,690.4951,213.2607,694.4951,209.2607,690.4951" style="stroke:#000000;stroke-width:1;"/><line style="stroke:#000000;stroke-width:1;" x1="63.8809" x2="63.8809" y1="885.9014" y2="904.4014"/><polygon fill="#000000" points="59.8809,894.4014,63.8809,904.4014,67.8809,894.4014,63.8809,898.4014" style="stroke:#000000;stroke-width:1;"/><line style="stroke:#000000;stroke-width:1;" x1="199.7275" x2="199.7275" y1="885.9014" y2="904.4014"/><polygon fill="#000000" points="195.7275,894.4014,199.7275,904.4014,203.7275,894.4014,199.7275,898.4014" style="stroke:#000000;stroke-width:1;"/><line style="stroke:#000000;stroke-width:1;" x1="327.1074" x2="327.1074" y1="885.9014" y2="904.4014"/><polygon fill="#000000" points="323.1074,894.4014,327.1074,904.4014,331.1074,894.4014,327.1074,898.4014" style="stroke:#000000;stroke-width:1;"/><line style="stroke:#000000;stroke-width:1;" x1="63.8809" x2="63.8809" y1="938.3701" y2="958.3701"/><polygon fill="#000000" points="59.8809,948.3701,63.8809,958.3701,67.8809,948.3701,63.8809,952.3701" style="stroke:#000000;stroke-width:1;"/><line style="stroke:#000000;stroke-width:1;" x1="199.7275" x2="199.7275" y1="938.3701" y2="958.3701"/><polygon fill="#000000" points="195.7275,948.3701,199.7275,958.3701,203.7275,948.3701,199.7275,952.3701" style="stroke:#000000;stroke-width:1;"/><line style="stroke:#000000;stroke-width:1;" x1="327.1074" x2="327.1074" y1="938.3701" y2="958.3701"/><polygon fill="#000000" points="323.1074,948.3701,327.1074,958.3701,331.1074,948.3701,327.1074,952.3701" style="stroke:#000000;stroke-width:1;"/><line style="stroke:#000000;stroke-width:1;" x1="191.2607" x2="191.2607" y1="864.4014" y2="884.4014"/><polygon fill="#000000" points="187.2607,874.4014,191.2607,884.4014,195.2607,874.4014,191.2607,878.4014" style="stroke:#000000;stroke-width:1;"/><line style="stroke:#000000;stroke-width:1;" x1="191.2607" x2="191.2607" y1="959.8701" y2="978.3701"/><polygon fill="#000000" points="187.2607,968.3701,191.2607,978.3701,195.2607,968.3701,191.2607,972.3701" style="stroke:#000000;stroke-width:1;"/><line style="stroke:#000000;stroke-width:1;" x1="458.4746" x2="458.4746" y1="530.5576" y2="550.5576"/><polygon fill="#000000" points="454.4746,540.5576,458.4746,550.5576,462.4746,540.5576,458.4746,544.5576" style="stroke:#000000;stroke-width:1;"/><line style="stroke:#000000;stroke-width:1;" x1="831.3823" x2="831.3823" y1="287.8232" y2="307.8232"/><polygon fill="#000000" points="827.3823,297.8232,831.3823,307.8232,835.3823,297.8232,831.3823,301.8232" style="stroke:#000000;stroke-width:1;"/><line style="stroke:#000000;stroke-width:1;" x1="697.7754" x2="697.7754" y1="530.5576" y2="550.5576"/><polygon fill="#000000" points="693.7754,540.5576,697.7754,550.5576,701.7754,540.5576,697.7754,544.5576" style="stroke:#000000;stroke-width:1;"/><line style="stroke:#000000;stroke-width:1;" x1="697.7754" x2="697.7754" y1="756.4639" y2="776.4639"/><polygon fill="#000000" points="693.7754,766.4639,697.7754,776.4639,701.7754,766.4639,697.7754,770.4639" style="stroke:#000000;stroke-width:1;"/><line style="stroke:#000000;stroke-width:1;" x1="769.5439" x2="697.7754" y1="464.5889" y2="464.5889"/><line style="stroke:#000000;stroke-width:1;" x1="697.7754" x2="697.7754" y1="464.5889" y2="496.5889"/><polygon fill="#000000" points="693.7754,486.5889,697.7754,496.5889,701.7754,486.5889,697.7754,490.5889" style="stroke:#000000;stroke-width:1;"/><line style="stroke:#000000;stroke-width:1;" x1="831.3823" x2="831.3823" y1="341.792" y2="452.5889"/><polygon fill="#000000" points="827.3823,442.5889,831.3823,452.5889,835.3823,442.5889,831.3823,446.5889" style="stroke:#000000;stroke-width:1;"/><line style="stroke:#000000;stroke-width:1;" x1="324.8677" x2="324.8677" y1="233.8545" y2="238.8545"/><line style="stroke:#000000;stroke-width:1;" x1="324.8677" x2="831.3823" y1="238.8545" y2="238.8545"/><line style="stroke:#000000;stroke-width:1;" x1="831.3823" x2="831.3823" y1="238.8545" y2="253.8545"/><polygon fill="#000000" points="827.3823,243.8545,831.3823,253.8545,835.3823,243.8545,831.3823,247.8545" style="stroke:#000000;stroke-width:1;"/><line style="stroke:#000000;stroke-width:1;" x1="697.7754" x2="697.7754" y1="584.5264" y2="589.5264"/><line style="stroke:#000000;stroke-width:1;" x1="697.7754" x2="191.2607" y1="589.5264" y2="589.5264"/><line style="stroke:#000000;stroke-width:1;" x1="191.2607" x2="191.2607" y1="589.5264" y2="604.5264"/><polygon fill="#000000" points="187.2607,594.5264,191.2607,604.5264,195.2607,594.5264,191.2607,598.5264" style="stroke:#000000;stroke-width:1;"/><line style="stroke:#000000;stroke-width:1;" x1="191.2607" x2="191.2607" y1="702.4951" y2="707.4951"/><line style="stroke:#000000;stroke-width:1;" x1="191.2607" x2="697.7754" y1="707.4951" y2="707.4951"/><line style="stroke:#000000;stroke-width:1;" x1="697.7754" x2="697.7754" y1="707.4951" y2="722.4951"/><polygon fill="#000000" points="693.7754,712.4951,697.7754,722.4951,701.7754,712.4951,697.7754,716.4951" style="stroke:#000000;stroke-width:1;"/><line style="stroke:#000000;stroke-width:1;" x1="697.7754" x2="697.7754" y1="810.4326" y2="815.4326"/><line style="stroke:#000000;stroke-width:1;" x1="697.7754" x2="191.2607" y1="815.4326" y2="815.4326"/><line style="stroke:#000000;stroke-width:1;" x1="191.2607" x2="191.2607" y1="815.4326" y2="830.4326"/><polygon fill="#000000" points="187.2607,820.4326,191.2607,830.4326,195.2607,820.4326,191.2607,824.4326" style="stroke:#000000;stroke-width:1;"/><line style="stroke:#000000;stroke-width:1;" x1="893.2207" x2="905.2207" y1="464.5889" y2="464.5889"/><line style="stroke:#000000;stroke-width:1;" x1="905.2207" x2="905.2207" y1="464.5889" y2="482.5889"/><line style="stroke:#000000;stroke-width:1;" x1="905.2207" x2="458.4746" y1="482.5889" y2="482.5889"/><line style="stroke:#000000;stroke-width:1;" x1="458.4746" x2="458.4746" y1="482.5889" y2="496.5889"/><polygon fill="#000000" points="454.4746,486.5889,458.4746,496.5889,462.4746,486.5889,458.4746,490.5889" style="stroke:#000000;stroke-width:1;"/><text fill="#000000" font-family="Verdana" font-size="18" lengthAdjust="spacing" textLength="41.0273" x="285.6797" y="96.6719">User</text><text fill="#000000" font-family="Verdana" font-size="18" lengthAdjust="spacing" textLength="61.4707" x="824.9087" y="96.6719">Sistem</text><!--SRC=[VLDTRvj047pdLspJ5mV9JTBMgOjLLGb9eoYkOzMj-jAN3RUOBN27xev8blpZkmVnXnoh227OcvsTdLtU-89gWgP2rf4hMJTeiOOdpCgbDQrMgQcCXRVvUJxEypt4LURvcVtg-X0v_fJUtbuVGnghoBwWBaQNe-ny3pL7wzcpqQy8wKF-FbT7eKSO8pcg2EBuwcPuSPd07Mcow0dkzRFXZE0CPiPZ7F_H2tQUQbZSV_yuVPn5qVgbrFgN8xkEd9SwKNBTbWWtv94hc9D3ZNeI9GyLbt2IIhZSC9y5tfD9npFEH_HvtHTOHyaCdtc9Zg4aAB326ZKeKxOr1QvlvBC257g4hY6Xu1m6Z-4T50k5ID1VJq5cfM6mmjC8v4gc1XLafcvGhw2n9kUA9lrHIYM8VjywQAX-mfKOf_kpxl7IOdWDfHQjmWAgLgDxLQRZctF5HRBrKAIsdOqz9LMEOE1PORcNynFhXYjHlarp-7UJeHNdUt8sJdM9sv5fKyjajqPrXpyabGw2XoqbKoxG7y6ufcA_KzYFRp2thFtfP8S0N8RVOOjR56W9VWkdksgQ_m1JqwnWohhSThbNia_pfkc_Nfcsty3EExBMsCakjtSkqaRyiRmi0dSSfp8HZpg9O_dSsFr5beA63Qx4X00B0mj1u_mc2eDkw460t0-aMjabbAKRsivd2HezL2GBgsH3BVThsgtckw05Wf1_]--></g></svg>