<svg xmlns="http://www.w3.org/2000/svg" xmlns:xlink="http://www.w3.org/1999/xlink" contentStyleType="text/css" data-diagram-type="ACTIVITY" height="892px" preserveAspectRatio="none" style="width:471px;height:892px;background:#F0F8FF;" version="1.1" viewBox="0 0 471 892" width="471px" zoomAndPan="magnify"><title>**AD-25: Export Laporan**
Sistem SIM4LON</title><defs/><g><rect fill="#F0F8FF" height="892" style="stroke:none;stroke-width:1;" width="471" x="0" y="0"/><g class="title" data-source-line="8"><text fill="#000000" font-family="Verdana" font-size="22" font-weight="bold" lengthAdjust="spacing" textLength="281.6816" x="93.1765" y="35.4209">AD-25: Export Laporan</text><text fill="#000000" font-family="Verdana" font-size="22" font-weight="bold" lengthAdjust="spacing" textLength="204.8643" x="131.5852" y="61.0303">Sistem SIM4LON</text></g><rect fill="#FFFFFF" height="20.9531" style="stroke:#FFFFFF;stroke-width:1;" width="448.0347" x="10" y="79.9639"/><ellipse cx="107.5508" cy="115.917" fill="#FFFFFF" rx="10" ry="10" style="stroke:#000000;stroke-width:1;"/><rect fill="#87CEEB" height="47.9375" rx="12.5" ry="12.5" style="stroke:#1565C0;stroke-width:1;" width="183.1016" x="16" y="145.917"/><text fill="#000000" font-family="Verdana" font-size="12" lengthAdjust="spacing" textLength="163.1016" x="26" y="167.0557">Berada di halaman laporan</text><text fill="#000000" font-family="Verdana" font-size="12" lengthAdjust="spacing" textLength="102.7793" x="26" y="181.0244">(sudah ada data)</text><rect fill="#87CEEB" height="33.9688" rx="12.5" ry="12.5" style="stroke:#1565C0;stroke-width:1;" width="131.4336" x="41.834" y="213.8545"/><text fill="#000000" font-family="Verdana" font-size="12" lengthAdjust="spacing" textLength="111.4336" x="51.834" y="234.9932">Klik "Export Excel"</text><rect fill="#87CEEB" height="33.9688" rx="12.5" ry="12.5" style="stroke:#1565C0;stroke-width:1;" width="152.8203" x="31.1406" y="687.5107"/><text fill="#000000" font-family="Verdana" font-size="12" lengthAdjust="spacing" textLength="132.8203" x="41.1406" y="708.6494">Browser download file</text><rect fill="#87CEEB" height="47.9375" rx="12.5" ry="12.5" style="stroke:#1565C0;stroke-width:1;" width="124.5488" x="45.2764" y="741.4795"/><text fill="#000000" font-family="Verdana" font-size="12" lengthAdjust="spacing" textLength="100.4063" x="55.2764" y="762.6182">File tersimpan di</text><text fill="#000000" font-family="Verdana" font-size="12" lengthAdjust="spacing" textLength="104.5488" x="55.2764" y="776.5869">folder Downloads</text><rect fill="#87CEEB" height="33.9688" rx="12.5" ry="12.5" style="stroke:#1565C0;stroke-width:1;" width="157.0391" x="29.0313" y="809.417"/><text fill="#000000" font-family="Verdana" font-size="12" lengthAdjust="spacing" textLength="137.0391" x="39.0313" y="830.5557">Buka file dengan Excel</text><ellipse cx="107.5508" cy="874.3857" fill="none" rx="11" ry="11" style="stroke:#000000;stroke-width:1;"/><ellipse cx="107.5508" cy="874.3857" fill="#FFFFFF" rx="6" ry="6" style="stroke:#000000;stroke-width:1;"/><line style="stroke:#000000;stroke-width:1;" x1="10" x2="10" y1="79.9639" y2="885.3857"/><rect fill="#87CEEB" height="33.9688" rx="12.5" ry="12.5" style="stroke:#1565C0;stroke-width:1;" width="181.9473" x="239.6641" y="267.8232"/><text fill="#000000" font-family="Verdana" font-size="12" lengthAdjust="spacing" textLength="161.9473" x="249.6641" y="288.9619">Ambil data laporan saat ini</text><rect fill="#87CEEB" height="47.9375" rx="12.5" ry="12.5" style="stroke:#1565C0;stroke-width:1;" width="161.0703" x="250.1025" y="321.792"/><text fill="#000000" font-family="Verdana" font-size="12" lengthAdjust="spacing" textLength="141.0703" x="260.1025" y="342.9307">Tentukan format kolom</text><text fill="#000000" font-family="Verdana" font-size="12" lengthAdjust="spacing" textLength="119.2559" x="260.1025" y="356.8994">sesuai jenis laporan</text><rect fill="#87CEEB" height="47.9375" rx="12.5" ry="12.5" style="stroke:#1565C0;stroke-width:1;" width="133.9473" x="263.6641" y="389.7295"/><text fill="#000000" font-family="Verdana" font-size="12" lengthAdjust="spacing" textLength="113.9473" x="273.6641" y="410.8682">Generate file Excel</text><text fill="#000000" font-family="Verdana" font-size="12" lengthAdjust="spacing" textLength="91.2715" x="273.6641" y="424.8369">dengan header</text><rect fill="#87CEEB" height="33.9688" rx="12.5" ry="12.5" style="stroke:#1565C0;stroke-width:1;" width="114.2715" x="273.502" y="457.667"/><text fill="#000000" font-family="Verdana" font-size="12" lengthAdjust="spacing" textLength="94.2715" x="283.502" y="478.8057">Isi data ke rows</text><rect fill="#87CEEB" height="33.9688" rx="12.5" ry="12.5" style="stroke:#1565C0;stroke-width:1;" width="177.1777" x="242.0488" y="511.6357"/><text fill="#000000" font-family="Verdana" font-size="12" lengthAdjust="spacing" textLength="157.1777" x="252.0488" y="532.7744">Set styling (border, width)</text><rect fill="#87CEEB" height="47.9375" rx="12.5" ry="12.5" style="stroke:#1565C0;stroke-width:1;" width="243.0723" x="209.1016" y="565.6045"/><text fill="#000000" font-family="Verdana" font-size="12" lengthAdjust="spacing" textLength="115.9512" x="219.1016" y="586.7432">Generate nama file</text><text fill="#000000" font-family="Verdana" font-size="12" lengthAdjust="spacing" textLength="223.0723" x="219.1016" y="600.7119">(Laporan_JenisLaporan_Tanggal.xlsx)</text><rect fill="#87CEEB" height="33.9688" rx="12.5" ry="12.5" style="stroke:#1565C0;stroke-width:1;" width="143.4863" x="258.8945" y="633.542"/><text fill="#000000" font-family="Verdana" font-size="12" lengthAdjust="spacing" textLength="123.4863" x="268.8945" y="654.6807">Kirim file ke browser</text><line style="stroke:#000000;stroke-width:1;" x1="203.1016" x2="203.1016" y1="79.9639" y2="885.3857"/><line style="stroke:#000000;stroke-width:1;" x1="456.1738" x2="456.1738" y1="79.9639" y2="885.3857"/><line style="stroke:#000000;stroke-width:1;" x1="107.5508" x2="107.5508" y1="125.917" y2="145.917"/><polygon fill="#000000" points="103.5508,135.917,107.5508,145.917,111.5508,135.917,107.5508,139.917" style="stroke:#000000;stroke-width:1;"/><line style="stroke:#000000;stroke-width:1;" x1="107.5508" x2="107.5508" y1="193.8545" y2="213.8545"/><polygon fill="#000000" points="103.5508,203.8545,107.5508,213.8545,111.5508,203.8545,107.5508,207.8545" style="stroke:#000000;stroke-width:1;"/><line style="stroke:#000000;stroke-width:1;" x1="107.5508" x2="107.5508" y1="721.4795" y2="741.4795"/><polygon fill="#000000" points="103.5508,731.4795,107.5508,741.4795,111.5508,731.4795,107.5508,735.4795" style="stroke:#000000;stroke-width:1;"/><line style="stroke:#000000;stroke-width:1;" x1="107.5508" x2="107.5508" y1="789.417" y2="809.417"/><polygon fill="#000000" points="103.5508,799.417,107.5508,809.417,111.5508,799.417,107.5508,803.417" style="stroke:#000000;stroke-width:1;"/><line style="stroke:#000000;stroke-width:1;" x1="107.5508" x2="107.5508" y1="843.3857" y2="863.3857"/><polygon fill="#000000" points="103.5508,853.3857,107.5508,863.3857,111.5508,853.3857,107.5508,857.3857" style="stroke:#000000;stroke-width:1;"/><line style="stroke:#000000;stroke-width:1;" x1="330.6377" x2="330.6377" y1="301.792" y2="321.792"/><polygon fill="#000000" points="326.6377,311.792,330.6377,321.792,334.6377,311.792,330.6377,315.792" style="stroke:#000000;stroke-width:1;"/><line style="stroke:#000000;stroke-width:1;" x1="330.6377" x2="330.6377" y1="369.7295" y2="389.7295"/><polygon fill="#000000" points="326.6377,379.7295,330.6377,389.7295,334.6377,379.7295,330.6377,383.7295" style="stroke:#000000;stroke-width:1;"/><line style="stroke:#000000;stroke-width:1;" x1="330.6377" x2="330.6377" y1="437.667" y2="457.667"/><polygon fill="#000000" points="326.6377,447.667,330.6377,457.667,334.6377,447.667,330.6377,451.667" style="stroke:#000000;stroke-width:1;"/><line style="stroke:#000000;stroke-width:1;" x1="330.6377" x2="330.6377" y1="491.6357" y2="511.6357"/><polygon fill="#000000" points="326.6377,501.6357,330.6377,511.6357,334.6377,501.6357,330.6377,505.6357" style="stroke:#000000;stroke-width:1;"/><line style="stroke:#000000;stroke-width:1;" x1="330.6377" x2="330.6377" y1="545.6045" y2="565.6045"/><polygon fill="#000000" points="326.6377,555.6045,330.6377,565.6045,334.6377,555.6045,330.6377,559.6045" style="stroke:#000000;stroke-width:1;"/><line style="stroke:#000000;stroke-width:1;" x1="330.6377" x2="330.6377" y1="613.542" y2="633.542"/><polygon fill="#000000" points="326.6377,623.542,330.6377,633.542,334.6377,623.542,330.6377,627.542" style="stroke:#000000;stroke-width:1;"/><line style="stroke:#000000;stroke-width:1;" x1="107.5508" x2="107.5508" y1="247.8232" y2="252.8232"/><line style="stroke:#000000;stroke-width:1;" x1="107.5508" x2="330.6377" y1="252.8232" y2="252.8232"/><line style="stroke:#000000;stroke-width:1;" x1="330.6377" x2="330.6377" y1="252.8232" y2="267.8232"/><polygon fill="#000000" points="326.6377,257.8232,330.6377,267.8232,334.6377,257.8232,330.6377,261.8232" style="stroke:#000000;stroke-width:1;"/><line style="stroke:#000000;stroke-width:1;" x1="330.6377" x2="330.6377" y1="667.5107" y2="672.5107"/><line style="stroke:#000000;stroke-width:1;" x1="330.6377" x2="107.5508" y1="672.5107" y2="672.5107"/><line style="stroke:#000000;stroke-width:1;" x1="107.5508" x2="107.5508" y1="672.5107" y2="687.5107"/><polygon fill="#000000" points="103.5508,677.5107,107.5508,687.5107,111.5508,677.5107,107.5508,681.5107" style="stroke:#000000;stroke-width:1;"/><text fill="#000000" font-family="Verdana" font-size="18" lengthAdjust="spacing" textLength="41.0273" x="86.0371" y="96.6719">User</text><text fill="#000000" font-family="Verdana" font-size="18" lengthAdjust="spacing" textLength="61.4707" x="298.9023" y="96.6719">Sistem</text><!--SRC=[RP5DRzD048Rl_XL3kRGHe588LCufRWCgBRHIoiqIccJ7zk3rhBMx8QcK7y_u8r84ELaUF_D-Z5_5YXg2rY9B4cgM5ZqsiC9rNNgt4NFZhFFmkhWihelYY9Yl8__X-9BzIrv_lbaiibEayuRyIBsVVfgkBu-e9_IH8plvJv0-55U5EOcUK4pqaoMOJEQtRw-cAInshVCH7b0VA9D9BaiEaHfOtdt_-F3u8qdsFmFvVHAYoYPfHXuDWc6eq6A30dPOpUKyR0nMq7_6Y1Up9BstNCFPwB7OhScUpLHniDWdwRnPiUtfWmm4n0WihDlF975Jwwnmlj5fhKsQN0A53JBy9k5mM5FwAubcYmG5Qy7UB1T3Kgf0HQYNKEWky61N4tYt3JfQKeGGNonB2UUh_cHlOCicLXV7gg9bUsajEbxhrxSkmk7b6QKiqRxRsR3hkxFdPWYZPglEhOjmk6UQ3HCmRYlMeUbHtVlIRKJoWPjMenlEfN1MKy7jI7QfCptC83vMx0lFz3UvzYy0]--></g></svg>